<svg xmlns="http://www.w3.org/2000/svg" viewBox="0 0 332.7 73.1"><path d="M8.5 0L0 4.5v64.1l8.5 4.5L55.3 41v-8.9L8.5 0zm19.9 46.3l-7-10.4v15.3l-10.5 7.2V14.7l10.5 7.2L32 37.2v-8l10.7 7.3-14.3 9.8zm44.8-4.9h-9V17.2H73c6.9 0 13.9 2.9 13.9 12.1 0 8.5-7 12.1-13.7 12.1zm-.4-19.2h-2.9v14.2h2.8c4.2 0 8.1-1.7 8.1-7.1 0-5.5-3.9-7.1-8-7.1zM99 42c-5.1 0-9.5-3.6-9.5-9.1 0-5.6 4.3-9 9.5-9s9.5 3.4 9.5 9c0 5.5-4.3 9.1-9.5 9.1zm0-13.5c-2.6 0-4 2.2-4 4.4s1.4 4.4 4 4.4 4-2.2 4-4.4c.1-2.3-1.3-4.4-4-4.4zm34.8 12.9h-5.7l-3.4-10.6h-.1l-3.3 10.6h-5.7l-5.9-17.1h6.1l2.9 10.8h.1l3.1-10.8h5.7l3.2 10.8h.1l3-10.8h5.8l-5.9 17.1zm19.3 0v-9.3c0-1.9-.5-3.6-2.5-3.6s-3 1.7-3 3.7v9.3h-5.7V24.4h5.4v2.4h.1c.8-1.5 2.7-2.8 5.1-2.8 4.6 0 6.2 3.6 6.2 7v10.6h-5.6zm25.7 0L169 25.6h-.1l.1 15.9h-5.7V17.2h6.7l9.7 15.8h.1l-.1-15.8h5.7v24.3h-6.6zm19.9.6c-5.1 0-9.5-3.6-9.5-9.1 0-5.6 4.3-9 9.5-9s9.5 3.4 9.5 9c0 5.5-4.3 9.1-9.5 9.1zm0-13.5c-2.6 0-4 2.2-4 4.4s1.4 4.4 4 4.4 4-2.2 4-4.4c.1-2.3-1.4-4.4-4-4.4zm19.2.1v6.5c0 1.6.5 2.4 2.1 2.4.5 0 1.2-.1 1.6-.3l.1 4.1c-.8.3-2.1.5-3.3.5-4.6 0-6.1-2.4-6.1-6.1v-7.2h-2.7v-4.2h2.7v-4.5h5.5v4.5h4v4.2h-3.9zm9.5-6.6c-1.8 0-3.2-1.4-3.2-3.1 0-1.6 1.4-3.1 3.2-3.1 1.8 0 3.2 1.4 3.2 3.1 0 1.8-1.4 3.1-3.2 3.1zm-2.8 19.4v-17h5.6v17.1h-5.6zm20.6-21.7c-.4-.1-1-.2-1.5-.2-2.1 0-2.5 1.6-2.5 3.2v1.7h3.8v4.2h-3.8v12.8h-5.6V28.6h-3.1v-4.2h3.1v-1.6c0-4.2 1.6-7.8 7.3-7.8 1 0 2 .1 2.7.3l-.4 4.4zm5 2.3c-1.8 0-3.2-1.4-3.2-3.1 0-1.6 1.4-3.1 3.2-3.1 1.7 0 3.2 1.4 3.2 3.1 0 1.8-1.5 3.1-3.2 3.1zm-2.9 19.4v-17h5.7v17.1h-5.7zm27-7H262c.2 1.9 2.1 3.2 4.1 3.2 1.8 0 3-.8 3.8-1.8l3.9 2.5c-1.6 2.3-4.3 3.6-7.7 3.6-5.1 0-9.4-3.3-9.4-9 0-5.6 4-9.1 9.2-9.1 5 0 8.6 3.5 8.6 9.3-.1.5-.1.9-.2 1.3zm-5.1-3.5c0-1.8-1.1-3.3-3.4-3.3-2.2 0-3.7 1.5-3.9 3.3h7.3zm19.7-1.9c-.5-.1-1-.2-1.4-.2-3 0-4 2.5-4 3.9v8.8h-5.6V24.4h5.4v2.5h.1c.9-1.7 2.5-2.9 4.6-2.9.4 0 .9 0 1.2.1l-.3 4.9zm3.1 12.6c-1 0-1.9-.8-1.9-1.8s.9-1.9 1.9-1.9c1 0 1.9.8 1.9 1.9 0 1-.8 1.8-1.9 1.8zm10.6-6.6c-.3-.5-1-.8-1.6-.8-1.3 0-2.2 1.1-2.2 2.4 0 1.3.9 2.4 2.2 2.4.6 0 1.3-.2 1.7-.7l1.7 2.1c-.8.8-2.1 1.2-3.5 1.2-3 0-5.3-1.9-5.3-5s2.3-5 5.3-5c1.3 0 2.8.5 3.5 1.3l-1.8 2.1zm7.7 6.7c-2.8 0-5.2-2-5.2-5.1 0-3.1 2.4-5 5.2-5 2.9 0 5.2 1.9 5.2 5 .1 3.2-2.3 5.1-5.2 5.1zm0-7.4c-1.5 0-2.2 1.2-2.2 2.4s.8 2.4 2.2 2.4c1.5 0 2.2-1.2 2.2-2.4.1-1.2-.7-2.4-2.2-2.4zm19.3 7.1v-5.2c0-1.1-.2-2-1.3-2s-1.6 1-1.6 2v5.1h-3.1v-5.4c0-1.1-.4-1.8-1.3-1.8-1 0-1.6.9-1.6 2v5.1h-3.1V32h3v1.3c.4-.8 1.4-1.6 2.8-1.6s2.3.6 2.8 1.6c.6-1 1.6-1.6 3-1.6 2.6 0 3.4 2.1 3.4 3.9v5.8h-3zM67.7 45.2l-3.5 8.1h1.1l.9-2.1H70l.9 2.1h1.2l-3.5-8.1h-.9zm1.9 5.1h-3.1l1.5-3.7 1.6 3.7zm3.3-5.6h1v8.6h-1zm5.1 3.1c-1.6 0-2.7 1.2-2.7 2.9 0 1.6 1.2 2.9 2.8 2.9.9 0 1.7-.4 2.3-1.1l.1-.1-.8-.6-.1.1c-.3.4-.8.8-1.6.8-.9 0-1.7-.7-1.8-1.6h4.3v-.5c.1-1.8-.9-2.8-2.5-2.8zm0 .8c.9 0 1.5.6 1.6 1.4h-3.3c.2-.6.8-1.4 1.7-1.4zm10.3 3.8c-.2.1-.4.2-.6.2-.4 0-.7-.1-.7-.8v-2.9h1.5V48H87v-1.5h-1V48h-.9c-.2-.1-.4-.1-.5-.1-.6 0-1.2.3-1.6.8v-.6h-1v5.4h1v-2.8c0-1.2.5-1.8 1.4-1.8.2 0 .4 0 .5.1l.1.1h1v3.1c0 1.4 1.1 1.5 1.5 1.5.3 0 .6-.1.9-.2h.1v-.9l-.2-.2zm1.1-4.5h1v5.4h-1zm.5-2.5c-.3 0-.7.3-.7.7 0 .4.3.7.7.7.3 0 .7-.3.7-.7 0-.5-.4-.7-.7-.7zm4.9 2.4c-.7 0-1.3.3-1.7.8V48h-1v5.4h1v-2.8c0-1.3.7-1.9 1.5-1.9.9 0 1.3.5 1.3 1.7v3h1V50c0-1.4-.8-2.2-2.1-2.2zm8.1.8c-.4-.5-1.1-.8-1.9-.8-1.6 0-2.8 1.2-2.8 2.8 0 1.6 1.2 2.8 2.8 2.8.7 0 1.4-.3 1.9-.8v.6c0 .9-.3 1.9-1.9 1.9-.7 0-1.5-.4-1.9-.9l-.1-.1-.7.8.1.1c.6.6 1.6 1 2.6 1 2.7 0 2.9-2.2 2.9-2.8v-5.3h-1v.7zm.1 1.9c0 1.1-.8 1.9-1.9 1.9-1.3 0-1.8-1-1.8-1.9 0-.9.6-1.9 1.8-1.9 1.1 0 1.9.9 1.9 1.9zm7.3 1.6l-1.7-4.2h-1.1l2.3 5.3-.4 1c-.2.6-.5.8-.9.8-.2 0-.4 0-.5-.1h-.1l-.1 1h.1c.2 0 .5.1.7.1 1.1 0 1.5-.7 1.7-1.4l2.7-6.7h-1.1l-1.6 4.2zm6-4.3c-1.7 0-2.9 1.2-2.9 2.9s1.2 2.9 2.9 2.9 2.9-1.2 2.9-2.9-1.2-2.9-2.9-2.9zm0 4.8c-1.1 0-1.8-.8-1.8-2s.8-2 1.8-2c1.1 0 1.8.8 1.8 2 .1 1.2-.7 2-1.8 2zm9-.5v-4.2h-1v2.8c0 1.3-.7 1.9-1.5 1.9-.9 0-1.3-.5-1.3-1.7v-3h-1v3.3c0 1.4.8 2.3 2.1 2.3.6 0 1.3-.3 1.7-.8v.6h1v-1.2zm9.2 0v-4.2h-1v2.8c0 1.3-.7 1.9-1.5 1.9-.9 0-1.3-.5-1.3-1.7v-3h-1v3.3c0 1.4.8 2.3 2.1 2.3.6 0 1.3-.3 1.7-.8v.6h1v-1.2zm4.6-4.3c-.7 0-1.4.3-1.9.8v-.7h-1V56h1v-3.3c.5.5 1.2.8 1.9.8 1.6 0 2.8-1.2 2.8-2.9s-1.1-2.8-2.8-2.8zm1.8 2.8c0 1-.6 2-1.8 2-1.1 0-1.9-.8-1.9-2 0-1.1.8-2 1.9-2 1.2 0 1.8 1 1.8 2zm1.7 4.3h.9l1-2.9h-1zm11-3l-1.4-4h-.9l-1.3 4-1.2-4h-1l1.7 5.4h1l1.3-3.9 1.3 3.9h1l1.7-5.4h-1.1zm5.9-4.1c-.6 0-1.3.3-1.6.7v-3.8h-1v8.6h1v-2.8c0-1.3.7-1.9 1.5-1.9.9 0 1.3.5 1.3 1.7v3h1V50c-.1-1.4-.9-2.2-2.2-2.2zm6.1 0c-1.6 0-2.7 1.2-2.7 2.9 0 1.6 1.2 2.9 2.8 2.9.9 0 1.7-.4 2.3-1.1l.1-.1-.8-.6-.1.1c-.3.4-.8.8-1.6.8-.9 0-1.7-.7-1.8-1.6h4.3v-.5c.1-1.8-.9-2.8-2.5-2.8zm0 .8c.9 0 1.5.6 1.6 1.4H164c.1-.6.7-1.4 1.6-1.4zm6.7-.8c-.6 0-1.3.3-1.7.8V48h-1v5.4h1v-2.8c0-1.3.7-1.9 1.4-1.9.9 0 1.3.5 1.3 1.7v3h1V50c.1-1.4-.7-2.2-2-2.2zm8.5 4.3l-1.7-4.2H178l2.3 5.3-.4 1c-.2.6-.5.8-.9.8-.2 0-.4 0-.5-.1h-.1l-.1 1h.1c.2 0 .5.1.7.1 1.1 0 1.5-.7 1.7-1.4l2.7-6.7h-1.1l-1.6 4.2zm6-4.3c-1.7 0-2.9 1.2-2.9 2.9s1.2 2.9 2.9 2.9 2.9-1.2 2.9-2.9-1.3-2.9-2.9-2.9zm0 4.8c-1.1 0-1.8-.8-1.8-2s.8-2 1.8-2c1.1 0 1.8.8 1.8 2s-.8 2-1.8 2zm8.9-.5v-4.2h-1v2.8c0 1.3-.7 1.9-1.5 1.9-.9 0-1.3-.5-1.3-1.7v-3h-1v3.3c0 1.4.8 2.3 2.1 2.3.6 0 1.3-.3 1.7-.8v.6h1v-1.2zm4.3-4.3c-.6 0-1.2.3-1.6.8V48h-1v5.4h1v-2.8c0-1.2.5-1.8 1.4-1.8.2 0 .4 0 .5.1l.1.1.1-1h-.1c0-.2-.2-.2-.4-.2zm9.3 4.1l-1.3-4h-.9l-1.4 4-1.1-4h-1.1l1.7 5.4h1l1.3-3.9 1.3 3.9h1l1.7-5.4h-1zm5.6-4.1c-1.6 0-2.7 1.2-2.7 2.9 0 1.6 1.2 2.9 2.8 2.9.9 0 1.7-.4 2.3-1.1l.1-.1-.8-.6-.1.1c-.3.4-.8.8-1.6.8-.9 0-1.7-.7-1.8-1.6h4.3v-.5c.1-1.8-.9-2.8-2.5-2.8zm0 .8c.9 0 1.5.6 1.6 1.4h-3.3c.1-.6.8-1.4 1.7-1.4zm6.9-.8c-.7 0-1.4.3-1.9.8v-3.9h-1v8.6h1v-.7c.5.5 1.1.8 1.9.8 1.6 0 2.8-1.2 2.8-2.9s-1.2-2.7-2.8-2.7zm1.7 2.8c0 1-.6 2-1.8 2-1.1 0-1.9-.8-1.9-2 0-1.1.8-2 1.9-2 1.3 0 1.8 1 1.8 2zm4.2-.5c-1-.2-1.1-.4-1.1-.8 0-.7.8-.7 1-.7.5 0 1 .3 1.2.7l.1.1.8-.6-.1-.1c-.3-.6-1.1-1-1.9-1-.9 0-2 .4-2 1.6 0 1.1 1.1 1.4 1.6 1.5 1.1.3 1.4.5 1.4.9 0 .7-.7.8-1.1.8-.5 0-1.1-.3-1.3-.7l-.1-.1-.8.6.1.1c.5.7 1.2 1.1 2.2 1.1 1 0 2.1-.5 2.1-1.7-.2-.9-.8-1.4-2.1-1.7zm3.7-4.7c-.3 0-.7.3-.7.7 0 .4.3.7.7.7.3 0 .7-.3.7-.7-.1-.5-.4-.7-.7-.7zm-.5 2.5h1v5.4h-1zm5.1 4.5c-.2.1-.4.2-.6.2-.4 0-.7-.1-.7-.8v-2.9h1.5V48h-1.5v-1.5h-1V48h-1.1v.9h1.1V52c0 1.4 1.1 1.5 1.5 1.5.3 0 .6-.1.9-.2h.1v-.9h-.2zm3.5-4.6c-1.6 0-2.7 1.2-2.7 2.9 0 1.6 1.2 2.9 2.8 2.9.9 0 1.7-.4 2.3-1.1l.1-.1-.8-.6-.1.1c-.3.4-.8.8-1.6.8-.9 0-1.7-.7-1.8-1.6h4.3v-.5c.1-1.8-.9-2.8-2.5-2.8zm0 .8c.9 0 1.5.6 1.6 1.4h-3.3c.2-.6.8-1.4 1.7-1.4zm7.3-3.2c-.3 0-.7.3-.7.7 0 .4.3.7.7.7.3 0 .7-.3.7-.7 0-.5-.4-.7-.7-.7zm-.5 2.5h1v5.4h-1zm4.5 2.2c-1-.2-1.1-.4-1.1-.8 0-.7.8-.7 1-.7.5 0 1 .3 1.2.7l.1.1.8-.6-.1-.1c-.3-.6-1.1-1-1.9-1-.9 0-2 .4-2 1.6 0 1.1 1.1 1.4 1.6 1.5 1.1.3 1.4.5 1.4.9 0 .7-.7.8-1.1.8-.5 0-1.1-.3-1.3-.7l-.1-.1-.8.6.1.1c.5.7 1.2 1.1 2.2 1.1 1 0 2.1-.5 2.1-1.7-.2-.9-.7-1.4-2.1-1.7zm10.3-1.5c-.5-.5-1.1-.8-1.9-.8-1.6 0-2.8 1.2-2.8 2.9s1.2 2.9 2.8 2.9c.7 0 1.4-.3 1.9-.8v.7h1v-8.6h-1v3.7zm0 2c0 1.1-.8 2-1.9 2-1.3 0-1.8-1-1.8-2s.6-2 1.8-2c1.2 0 1.9.9 1.9 2zm5.2-2.8c-1.7 0-2.9 1.2-2.9 2.9s1.2 2.9 2.9 2.9 2.9-1.2 2.9-2.9-1.2-2.9-2.9-2.9zm0 4.8c-1.1 0-1.8-.8-1.8-2s.8-2 1.8-2c1.1 0 1.8.8 1.8 2 .1 1.2-.7 2-1.8 2zm9.4-.7l-1.4-4h-.9l-1.3 4-1.2-4h-1l1.7 5.4h1l1.3-3.9 1.3 3.9h1l1.7-5.4h-1.1zm5.8-4.1c-.6 0-1.3.3-1.7.8V48h-1v5.4h1v-2.8c0-1.3.7-1.9 1.4-1.9.9 0 1.3.5 1.3 1.7v3h1V50c.1-1.4-.7-2.2-2-2.2z" fill="#dedddd"/></svg>