<?xml version="1.0" encoding="UTF-8" standalone="no"?>
<!-- Created with Inkscape (http://www.inkscape.org/) -->

<svg
   xmlns:osb="http://www.openswatchbook.org/uri/2009/osb"
   xmlns:dc="http://purl.org/dc/elements/1.1/"
   xmlns:cc="http://creativecommons.org/ns#"
   xmlns:rdf="http://www.w3.org/1999/02/22-rdf-syntax-ns#"
   xmlns:svg="http://www.w3.org/2000/svg"
   xmlns="http://www.w3.org/2000/svg"
   xmlns:sodipodi="../../../sodipodi.sourceforge.net/DTD/sodipodi-0.html"
   xmlns:inkscape="http://www.inkscape.org/namespaces/inkscape"
   id="svg2985"
   version="1.1"
   inkscape:version="0.92.2 (5c3e80d, 2017-08-06)"
   width="1390.9662"
   height="363.90323"
   sodipodi:docname="Forbes_logo2.html">
  <metadata
     id="metadata2991">
    <rdf:RDF>
      <cc:Work
         rdf:about="">
        <dc:format>image/svg+xml</dc:format>
        <dc:type
           rdf:resource="http://purl.org/dc/dcmitype/StillImage" />
        <dc:title></dc:title>
      </cc:Work>
    </rdf:RDF>
  </metadata>
  <defs
     id="defs2989">
    <linearGradient
       id="linearGradient4668"
       osb:paint="solid">
      <stop
         style="stop-color:#ffffff;stop-opacity:1;"
         offset="0"
         id="stop4666" />
    </linearGradient>
  </defs>
  <sodipodi:namedview
     pagecolor="#ffffff"
     bordercolor="#666666"
     borderopacity="1"
     objecttolerance="10"
     gridtolerance="10"
     guidetolerance="10"
     inkscape:pageopacity="0"
     inkscape:pageshadow="2"
     inkscape:window-width="1920"
     inkscape:window-height="1137"
     id="namedview2987"
     showgrid="false"
     inkscape:zoom="0.70710678"
     inkscape:cx="613.04606"
     inkscape:cy="263.37331"
     inkscape:window-x="-8"
     inkscape:window-y="-8"
     inkscape:window-maximized="1"
     inkscape:current-layer="svg2985"
     fit-margin-top="0"
     fit-margin-left="0"
     fit-margin-right="0"
     fit-margin-bottom="0" />
  <path
     style="fill:#ffffff;fill-opacity:1"
     d="M 346.57918,361.5613 C 290.76514,352.76209 256.78,314.16258 249.95321,251.81583 c -1.60155,-14.6264 -0.60759,-38.7873 2.12959,-51.76585 10.91301,-51.74472 43.80057,-85.92418 92.99638,-96.64947 12.13195,-2.64491 44.90393,-2.67096 56.84353,-0.0452 50.3992,11.08388 81.24779,46.43234 89.34346,102.37598 1.89913,13.12357 1.57785,41.63129 -0.6062,53.7891 -10.08157,56.12048 -47.549,94.02832 -100.74262,101.92682 -12.43119,1.84585 -32.02624,1.89743 -43.33817,0.11408 z m 39.18554,-18.03094 c 21.35807,-9.63913 32.27057,-46.5573 32.30414,-109.2884 0.0254,-47.4286 -8.03938,-83.25104 -23.17586,-102.94357 -7.39193,-9.61689 -19.02245,-15.11648 -29.39111,-13.89785 -21.08718,2.47838 -33.24096,22.36544 -39.16809,64.09021 -2.53678,17.85791 -2.49909,76.31075 0.0597,92.52965 4.90647,31.10026 12.23143,50.49134 23.53866,62.31297 9.98166,10.43576 22.90491,13.0314 35.8326,7.19699 z m 394.81446,18.43227 c -19.99742,-1.99886 -60.01185,-8.97002 -61.64115,-10.73887 -0.35632,-0.38685 -0.20973,-21.85336 0.32576,-47.70336 1.15709,-55.857 0.39601,-227.666289 -1.05652,-238.499999 -3.03913,-22.66754 -10.11524,-31.01615 -28.37809,-33.48137 l -4.75,-0.64118 v -4.87134 c 0,-5.47903 -0.35023,-5.23272 10,-7.03283 3.575,-0.62177 25.5913,-4.69511 48.9251,-9.05188 23.33381,-4.35677 43.35881,-7.92149 44.5,-7.9216 l 2.0749,-2.1e-4 -0.3449,58.00021 c -0.25365,42.654539 -0.0459,58.000199 0.78518,58.000199 0.62155,0 2.12675,-0.62779 3.3449,-1.3951 4.47645,-2.81968 20.45308,-8.5223 28.71482,-10.24933 12.68721,-2.65213 34.88854,-2.46864 45.66512,0.37742 30.3971,8.02776 55.26957,33.2198 66.84574,67.70463 5.36782,15.99046 6.76117,25.52244 6.87938,47.06238 0.11265,20.52703 -0.82873,29.85907 -4.51403,44.74803 -9.32632,37.67921 -31.49104,66.51564 -63.12681,82.12835 -11.32947,5.59126 -24.17135,9.83009 -36.7494,12.1302 -11.09255,2.02846 -43.47942,2.83709 -57.5,1.43565 z m 43.78122,-20.18339 c 26.04302,-12.05824 43.71878,-58.1295 43.71878,-113.9515 0,-39.2381 -9.35469,-69.50357 -26.49246,-85.71177 -12.06587,-11.41139 -25.83141,-14.03637 -45.16293,-8.61223 l -6.13187,1.72052 -0.75276,20.64807 c -0.77938,21.37845 0.31874,158.63149 1.41726,177.14178 l 0.62276,10.4937 3,0.68967 c 1.65,0.37932 7.725,0.59266 13.5,0.4741 9.00315,-0.18484 11.32415,-0.59716 16.28122,-2.89234 z m 241.7188,19.70347 c -18.1842,-2.87521 -33.1997,-8.57343 -47.6249,-18.07318 -27.36442,-18.02084 -45.33092,-46.31413 -52.00032,-81.88913 -2.8094,-14.98539 -2.6023,-43.08587 0.4292,-58.22776 3.8596,-19.27823 10.5457,-36.27806 19.7826,-50.29883 16.95672,-25.73865 41.15452,-42.49582 70.91342,-49.10812 11.7423,-2.60908 35.6836,-3.59089 46.2568,-1.89693 27.1351,4.34738 47.0419,16.9177 61.6936,38.95709 11.4605,17.23902 17.9193,39.90072 20.0431,70.32455 l 0.6108,8.75 h -74.7065 -74.7064 l 0.6329,12.48788 c 2.1479,42.38085 18.6623,72.53508 47.1757,86.14027 12.4104,5.92162 20.9961,7.64365 38,7.62168 20.9996,-0.0271 31.9117,-3.19915 48.1926,-14.00905 l 5.3833,-3.57433 2.9214,3.41678 c 1.6068,1.87922 2.9397,3.86867 2.9621,4.42099 0.077,1.90831 -9.8146,13.02904 -16.1261,18.12951 -18.2559,14.75299 -35.2793,22.54705 -57.6827,26.40955 -13.1569,2.26836 -29.4313,2.43015 -42.1506,0.41903 z m 45.5,-161.5095 c 1.343,-1.05083 0.099,-26.59547 -1.8989,-38.99462 -3.9492,-24.5077 -12.111,-39.39754 -23.4595,-42.79763 -5.143,-1.54088 -8.0312,-1.4636 -13.179,0.35263 -16.6638,5.87934 -29.9599,32.44123 -34.4684,68.85822 -0.8218,6.63788 -1.4942,12.66894 -1.4942,13.40237 0,1.09958 6.4465,1.21315 36.75,0.64747 20.2125,-0.37731 37.2,-1.03811 37.75,-1.46844 z m 148,161.40123 c -16.1774,-1.92745 -35.0703,-5.81549 -46,-9.46651 -4.95,-1.65353 -9.2856,-3.31717 -9.6346,-3.69697 -0.3491,-0.37981 -0.95,-16.94767 -1.3354,-36.81748 l -0.7007,-36.12692 4.7635,-1.62308 c 2.6199,-0.89269 5.0763,-1.62308 5.4587,-1.62308 0.3824,0 2.1588,3.7125 3.9475,8.25 10.7669,27.31217 24.7439,45.63431 40.9456,53.67461 8.7517,4.34318 14.5885,5.58027 26.0554,5.52235 8.4704,-0.0428 11.6108,-0.49134 16.2467,-2.3206 8.0039,-3.15825 15.894,-10.63544 19.9792,-18.93364 3.0465,-6.18844 3.2724,-7.34714 3.2501,-16.67169 -0.021,-8.84121 -0.3321,-10.60994 -2.6412,-15.02307 -6.4353,-12.29921 -20.3726,-21.05641 -52.8348,-33.19755 -42.6491,-15.95115 -60.0374,-36.73916 -59.9826,-71.71037 0.022,-13.89537 1.8389,-22.59384 6.8859,-32.96169 12.2077,-25.0781 37.4253,-41.83454 70.1963,-46.64365 12.2325,-1.7951 40.9919,-0.79005 56.3202,1.9682 10.8414,1.95086 33.1745,8.32015 34.7103,9.89922 0.3466,0.35633 0.9396,15.08003 1.3177,32.71931 l 0.6876,32.07144 -4.1718,1.24989 c -2.2945,0.68744 -4.7317,1.46474 -5.416,1.72733 -0.8046,0.30879 -2.2359,-2.27735 -4.0519,-7.32133 -3.5339,-9.81579 -10.6183,-24.11085 -15.5485,-31.37402 -10.9472,-16.12757 -27.2806,-24.65104 -45.4531,-23.71935 -17.3662,0.89035 -28.8692,11.98855 -31.7298,30.61325 -1.3815,8.99507 0.226,16.49701 5.058,23.60381 7.0784,10.41097 20.2941,18.77549 48.4461,30.66286 27.4343,11.58427 37.3731,17.42926 48.2316,28.36495 12.7725,12.86331 16.871,23.99995 16.947,46.04974 0.04,11.62476 -0.3446,15.44211 -2.2672,22.5 -4.4157,16.20991 -15.2623,32.08793 -28.7027,42.0169 -22.6238,16.71321 -57.8427,23.23809 -98.9771,18.33714 z M 1.079182,350.07942 c 0,-3.26754 0.36532,-6.16677 0.811822,-6.44272 0.446502,-0.27595 5.509002,-1.43323 11.25,-2.57172 5.740998,-1.13849 11.362938,-2.27582 12.493201,-2.5274 3.516862,-0.78279 10.265247,-5.87878 13.362801,-10.0908 4.129174,-5.6148 7.964626,-17.74436 9.579746,-30.29577 2.5778,-20.03251 3.76101,-71.78455 3.1924,-139.63061 -0.55186,-65.847159 -1.34629,-84.158199 -4.31684,-99.499999 -4.83918,-24.9926 -13.749069,-33.3977 -37.87313,-35.72742 l -8,-0.77258 v -7 -7 l 140.127198,-0.25346 140.12721,-0.25347 0.60518,26.25347 c 0.33285,14.4394 0.7256,36.37571 0.87279,48.74734 l 0.26762,22.493879 -7,2.2542 c -3.85,1.23981 -7.37173,2.13115 -7.82607,1.98076 -0.45433,-0.15039 -2.52289,-4.76202 -4.5968,-10.248079 -8.83861,-23.38059 -16.23101,-35.93864 -27.95265,-47.48531 -8.73696,-8.60654 -17.59604,-13.72077 -29.66955,-17.12784 -7.51256,-2.12001 -9.84566,-2.24808 -41.95493,-2.30316 l -34,-0.0583 -0.61371,12.5 c -1.02668,20.91153 -3.26373,127.955899 -2.68613,128.533489 1.09471,1.09472 44.31779,-1.58499 49.29984,-3.05645 13.18068,-3.89293 23.65075,-18.5978 27.75219,-38.97704 l 1.40879,-7 7.16951,-0.29381 7.16951,-0.29381 v 59.04381 59.04381 h -6.98095 c -6.79777,0 -6.99731,-0.0722 -7.60441,-2.75 -3.59461,-15.85532 -8.69006,-27.93288 -14.67426,-34.78185 -7.89761,-9.03889 -14.58527,-10.75998 -46.643,-12.0037 l -17.40262,-0.67516 0.67722,26.85536 c 1.92881,76.48698 4.21291,95.40903 13.16307,109.04615 5.09896,7.76915 10.0443,10.20731 26.89602,13.26033 l 14.06893,2.54884 0.31235,6.25 0.31235,6.25 H 91.641532 1.079182 Z m 493.999998,-0.46518 v -6.40616 l 5.25,-0.66078 c 10.82653,-1.36266 15.31845,-3.22973 19.67347,-8.17729 8.49367,-9.64933 9.40576,-19.15377 9.48602,-98.84961 0.0627,-62.25068 -0.46001,-73.59002 -3.93045,-85.26409 -2.89985,-9.7547 -10.04745,-15.31519 -21.47904,-16.70967 -9.05283,-1.1043 -9,-1.0656 -9,-6.59363 0,-2.71293 0.3375,-4.9333 0.75,-4.93415 0.4125,-8.4e-4 24.08213,-4.72584 52.59917,-10.5 28.51704,-5.77415 52.09295,-10.49846 52.3909,-10.49846 0.29795,0 0.24002,12.7125 -0.12872,28.25 l -0.67045,28.25 4.75535,-8.8318 c 2.61545,-4.85748 7.7017,-12.71296 11.3028,-17.45661 18.17868,-23.94641 45.27473,-35.479139 69.78243,-29.70107 6.44934,1.52053 14.21852,4.94958 14.21852,6.27557 0,0.40999 -5.40591,15.13835 -12.01314,32.72968 -6.60723,17.59133 -12.23409,32.5884 -12.50415,33.32682 -0.37415,1.02308 -1.56395,0.7138 -4.99954,-1.29959 -16.25916,-9.5285 -37.5625,-12.32842 -54.08615,-7.10861 -4.35255,1.37498 -9.77954,3.87208 -12.05997,5.54913 -3.77518,2.7763 -4.18691,3.51753 -4.60086,8.28282 -0.92765,10.67902 -0.73086,93.83859 0.26204,110.73366 1.86836,31.79158 3.78233,39.8587 11.00483,46.3838 4.29193,3.8775 8.78742,5.09599 22.74694,6.16549 l 9.25,0.70868 v 6.37101 6.37102 h -74 -74 z"
     id="path4752"
     inkscape:connector-curvature="0" />
  <path
     style="fill:#ffffff;fill-opacity:1"
     d="m 345.59933,362.90571 c -24.24782,-3.53105 -45.4558,-13.79471 -61.65119,-29.83626 -13.50901,-13.38067 -22.26773,-28.09604 -28.72425,-48.2591 -10.08023,-31.47955 -10.08377,-71.95243 -0.009,-102.78995 9.76366,-29.88525 31.7473,-55.899 58.65278,-69.40519 37.26015,-18.704097 89.70252,-17.529177 124.2115,2.78284 31.05699,18.28017 49.86987,50.76152 55.1036,95.13906 1.59804,13.55003 0.5612,42.1693 -1.95576,53.98329 -10.30152,48.35279 -40.30397,82.12998 -84.25981,94.86089 -4.73659,1.37185 -12.08165,2.97687 -16.32236,3.56669 -8.97371,1.24813 -36.36079,1.22243 -45.04552,-0.0423 z m 52.47985,-3.73313 c 17.74409,-4.14207 31.88873,-10.46557 44.53292,-19.90891 30.75408,-22.96872 47.60602,-58.18739 49.16209,-102.74327 1.53401,-43.92438 -11.713,-81.36736 -37.32828,-105.50925 -20.79313,-19.5971 -46.99576,-28.99075 -80.86673,-28.99075 -35.90467,0 -64.82008,11.13244 -87.06607,33.52044 -23.82938,23.9815 -36.43393,57.43569 -36.43393,96.70059 0,40.73271 11.38778,73.61464 33.47293,96.65221 12.1765,12.70163 24.02962,20.31894 41.02707,26.36573 6.00961,2.13791 10.4315,3.16437 26.5,6.15151 1.375,0.25561 10.6,0.303 20.5,0.10532 13.40226,-0.26763 20.17116,-0.86626 26.5,-2.34362 z m -37.94254,-14.21145 c -16.42618,-7.4517 -28.07411,-30.10084 -33.91179,-65.94073 -3.70065,-22.71978 -4.05015,-73.24361 -0.67792,-98 4.73561,-34.7653 14.73914,-55.30453 30.31502,-62.24272 10.67642,-4.75575 25.47236,-1.94222 34.98601,6.65279 21.12886,19.08866 31.79327,73.36845 27.19208,138.40254 -3.30174,46.66756 -13.42972,71.97858 -32.3213,80.77479 -6.84851,3.18878 -18.96295,3.35609 -25.5821,0.35333 z m 21.73873,-1.47284 c 7.08404,-2.10374 15.82028,-10.29622 20.47897,-19.20432 9.61734,-18.38978 13.91193,-45.58332 14.01815,-88.76357 0.13312,-54.11598 -8.35006,-88.55198 -26.25621,-106.5825 -7.51947,-7.5717 -12.85137,-9.9232 -22.46524,-9.90773 -21.33673,0.0343 -34.87893,22.30879 -40.2294,66.17009 -2.45937,20.16099 -2.47229,68.19215 -0.0231,85.82014 7.5794,54.55235 27.1481,80.58364 54.47682,72.46789 z m 393.20381,19.40461 c -9.92049,-1.00576 -40.23658,-6.05089 -50.82639,-8.45841 l -7.32638,-1.66559 0.57131,-39.12425 c 1.3755,-94.19557 1.54851,-145.6168 0.6582,-195.62425 -0.87215,-48.987857 -1.12649,-54.167437 -3.0156,-61.413827 -2.39368,-9.1818 -5.84857,-15.58655 -10.00388,-18.5454 -1.61426,-1.14945 -6.00003,-2.77843 -9.74614,-3.61994 -12.45174,-2.7971 -11.77536,-2.34858 -12.10779,-8.02903 -0.19149,-3.27212 0.16305,-5.43377 1,-6.09706 1.12203,-0.8892 103.25,-20.36974097 106.50287,-20.31502796777 C 791.72009,0.01583503 791.85249,13.074323 791.37362,58.020403 c -0.33987,31.9 -0.38353,57.999997 -0.097,57.999997 0.2865,0 4.01829,-1.61589 8.29286,-3.59086 12.88486,-5.95317 24.7608,-8.53629 42.00972,-9.13748 11.48421,-0.40027 16.80381,-0.14961 22.69587,1.06945 38.52286,7.9703 67.03068,39.50159 76.9932,85.15889 2.5989,11.9105 3.56578,41.51105 1.84024,56.33768 -1.4707,12.63696 -5.66661,29.66365 -10.03299,40.71314 -16.4761,41.69417 -51.82635,68.89539 -98.72153,75.96401 -10.80213,1.62823 -44.72345,1.83291 -59.27479,0.35767 z m 56.5,-2.38408 c 30.37763,-4.55602 52.65959,-14.98787 71.52977,-33.48842 27.27651,-26.74223 40.41443,-64.48451 38.63862,-111 -0.91428,-23.94871 -4.82558,-39.59268 -14.75116,-59 -13.44678,-26.29227 -36.44516,-44.73469 -62.55827,-50.16552 -19.588,-4.07378 -44.79103,-0.88298 -63.9532,8.09671 -4.77543,2.23785 -9.34666,4.06881 -10.15828,4.06881 -1.28832,0 -1.42792,-7.40508 -1.09958,-58.328007 l 0.37609,-58.32801 -4.01199,0.80421 c -2.2066,0.44232 -24.712,4.63566 -50.012,9.31853 -25.3,4.68287 -46.98681,8.7457 -48.19292,9.02852 -1.83319,0.42986 -2.15439,1.12859 -1.95807,4.25949 0.21879,3.48919 0.50547,3.80482 4.19292,4.61621 12.67684,2.78945 14.93398,3.78346 19.64743,8.65248 5.77413,5.96469 8.38225,13.58138 10.09343,29.47658 1.36356,12.66618 1.66591,230.888707 0.36453,263.099307 l -0.77165,19.09932 10.31216,2.2052 c 39.04745,8.35007 77.96973,11.23545 102.31217,7.58459 z m -35.67389,-15.21235 c -2.02064,-0.21325 -4.18262,-1.00071 -4.8044,-1.74991 -1.71407,-2.06533 -3.5707,-137.81244 -2.42804,-177.52616 l 0.90633,-31.5 8,-2.30635 c 11.80299,-3.40273 24.50971,-2.87381 33.51789,1.39519 18.09035,8.57306 29.97467,29.75024 36.14661,64.41116 2.01042,11.2903 1.71334,50.50427 -0.48833,64.45808 -4.59724,29.13649 -12.96236,51.62435 -24.60752,66.15214 -5.64529,7.04273 -15.02045,13.70405 -22.35089,15.88096 -4.72947,1.4045 -14.86534,1.73748 -23.89165,0.78489 z m 19.25245,-2.29097 c 7.26478,-1.37774 12.90856,-4.26892 18.968,-9.71687 15.18675,-13.6542 26.60478,-41.84291 31.09549,-76.76823 1.82905,-14.22502 1.58271,-46.63868 -0.44469,-58.51189 -5.48315,-32.11139 -17.2662,-53.21631 -34.45558,-61.7143 -7.13051,-3.52515 -8.23009,-3.77381 -16.68764,-3.77381 -6.04883,0 -11.2524,0.64761 -15.67688,1.95107 l -6.62275,1.95106 -0.4891,36.54894 c -0.62653,46.81845 0.89666,164.0299 2.17531,167.393 0.81598,2.14621 1.71437,2.60125 5.76298,2.919 9.52997,0.74795 11.1063,0.72119 16.37486,-0.27797 z m 247.42146,19.39245 c -49.6106,-8.9484 -85.09022,-44.12946 -96.68332,-95.86996 -1.4911,-6.65482 -2.1505,-14.10097 -2.5244,-28.50759 -0.5916,-22.79208 1.2622,-36.93841 7.1439,-54.51559 11.2936,-33.75041 31.53412,-57.66625 60.93532,-72.00022 31.033,-15.129507 73.4612,-16.120437 100.9251,-2.35716 30.9215,15.49606 49.1165,46.43707 53.7323,91.37297 0.6214,6.05 0.9816,13.25 0.8005,16 l -0.3294,5 -74,0.25619 -74,0.25618 0.2821,8.74382 c 0.6534,20.25391 5.0078,38.1685 13.0632,53.74381 3.6614,7.07942 6.5753,10.93907 13.6547,18.08664 15.9926,16.14655 31.9022,22.39825 57,22.39825 18.1975,0 31.2839,-3.63147 44.9698,-12.47909 3.8333,-2.47819 7.7174,-4.5058 8.6313,-4.5058 2.0891,0 6.8989,6.19197 6.8989,8.88136 0,4.40663 -14.3475,18.61669 -28.3416,28.07013 -11.4613,7.74244 -29.6378,14.75291 -45.3992,17.50993 -11.0386,1.9309 -35.8357,1.88642 -46.7592,-0.0839 z m 44.4725,-1.92179 c 23.1707,-3.75766 45.9876,-14.87882 62.3865,-30.40764 8.9828,-8.50626 11.9619,-12.61113 10.7128,-14.76132 -3.3335,-5.73824 -3.1894,-5.73204 -11.7009,-0.50343 -13.5517,8.32475 -20.3446,10.61996 -36.2666,12.25386 -18.598,1.90853 -35.7529,-1.19983 -51.6043,-9.35036 -10.5155,-5.40689 -23.1172,-17.84305 -29.4155,-29.02889 -8.595,-15.26494 -13.2587,-33.09621 -14.6496,-56.01103 -0.584,-9.62176 -0.4574,-12.01901 0.6728,-12.73469 0.7703,-0.48779 34.1148,-0.88848 74.6423,-0.89695 l 73.25,-0.0153 0,-2.89405 c 0,-6.57704 -2.1589,-24.2559 -4.094,-33.52473 -7.7808,-37.26922 -28.3235,-63.84429 -57.6158,-74.53467 -11.659,-4.25498 -22.6884,-6.04655 -37.2245,-6.04655 -34.4421,0 -62.5713,11.29751 -84.3312,33.86989 -17.34902,17.99688 -27.64252,38.21395 -33.92462,66.63011 -1.8934,8.56433 -2.2108,13.01491 -2.2108,31 0,17.85199 0.3238,22.45613 2.1596,30.71367 11.6609,52.45 46.16642,86.99029 95.74132,95.83798 12.5635,2.24223 31.0771,2.41433 43.4725,0.40411 z m -70.3263,-158.21915 c -0.7524,-1.21738 1.1142,-19.01704 2.9611,-28.23661 4.4515,-22.22229 11.579,-38.26957 21.3867,-48.1512 5.2756,-5.31533 7.6828,-6.97231 11.9853,-8.25 2.961,-0.87934 6.3145,-1.59629 7.4522,-1.59322 4.5886,0.0124 10.003,2.35374 14.0328,6.06824 10.816,9.96989 17.0047,31.37942 18.231,63.0697 l 0.6054,15.64352 -10.4004,0.57955 c -20.8758,1.16329 -65.709,1.75202 -66.2541,0.87002 z m 57.2524,-2.85869 17.3985,-0.60528 -0.6263,-12.35845 c -2.2088,-43.57967 -12.8732,-67.39485 -30.1708,-67.37578 -18.7992,0.0207 -33.8221,24.18939 -40.0682,64.46159 -0.7678,4.95 -1.404,10.82 -1.4139,13.04444 l -0.018,4.04444 18.75,-0.30284 c 10.3125,-0.16656 26.5794,-0.57521 36.1486,-0.90812 z m 168.6014,163.96936 c -17.8163,-1.90968 -46.1703,-8.11734 -55.611,-12.17516 l -4.6111,-1.98192 -0.6288,-22.8451 c -0.3458,-12.56481 -0.7447,-29.36458 -0.8864,-37.33283 l -0.2577,-14.48772 2.7636,-1.32454 c 1.5199,-0.7285 4.5876,-1.40902 6.8169,-1.51228 l 4.0534,-0.18773 3.4534,8.49967 c 13.4729,33.16023 29.2739,51.03967 49.9122,56.47758 7.873,2.07443 22.6343,2.09267 28.4627,0.0352 16.3264,-5.76338 25.2792,-18.12521 25.3571,-35.01241 0.092,-19.99965 -10.901,-29.6091 -52.4318,-45.8319 -25.73,-10.05067 -34.7055,-15.2239 -45.3925,-26.16294 -11.5285,-11.80042 -17.0618,-25.23281 -18.1006,-43.94046 -1.2553,-22.60638 5.8202,-41.66386 21.4981,-57.90395 15.7774,-16.34313 36.2597,-25.2008 64.1614,-27.746957 24.5705,-2.24217 62.2857,2.969017 82.0461,11.336477 l 3.6051,1.52654 0.6429,20.3616 c 0.3536,11.19887 0.7193,26.21124 0.8127,33.36082 l 0.1698,12.99922 -4.8414,1.79757 c -7.6546,2.84211 -8.1573,2.48592 -12.4154,-8.79602 -11.9355,-31.62378 -25.8028,-46.58722 -47.4104,-51.15803 -13.1686,-2.78564 -24.1686,0.20911 -32.1638,8.75664 -6.2375,6.66839 -8.6711,12.59018 -9.2608,22.5343 -0.6388,10.77429 1.2867,16.59799 7.8697,23.80075 8.1137,8.87775 21.4067,16.54111 47.8866,27.6065 32.4332,13.55316 47.9087,25.05937 56.3216,41.87595 5.4638,10.92143 7.0107,19.6446 6.4611,36.43513 -0.4125,12.59927 -0.8157,15.18915 -3.6821,23.64876 -9.3454,27.58068 -30.4426,45.73837 -63.034,54.25121 -11.0393,2.88346 -12.6151,3.03266 -34.5666,3.273 -12.65,0.1385 -24.8,0.0589 -27,-0.17693 z m 47.5,-2.80185 c 42.4867,-6.45252 69.9178,-29.2351 77.1134,-64.04543 3.4745,-16.8091 1.853,-35.50072 -4.164,-48 -8.4242,-17.49967 -22.6686,-28.06463 -57.9494,-42.98061 -26.2032,-11.07815 -41.9105,-20.46905 -48.3432,-28.90277 -5.3143,-6.96735 -7.0419,-12.3245 -6.971,-21.61662 0.107,-14.01532 5.4198,-24.74966 15.562,-31.44265 8.4915,-5.60362 19.1322,-6.97069 31.5214,-4.04971 14.9719,3.52993 26.2306,12.71907 36.3984,29.70768 3.2357,5.40629 9.8884,20.58292 13.1279,29.94824 0.5026,1.45306 1.0813,1.51418 4.5736,0.48304 2.199,-0.64929 4.3071,-1.4895 4.6848,-1.86712 0.3776,-0.37763 0.3528,-14.70332 -0.055,-31.83485 l -0.7418,-31.14825 -3.6284,-1.53633 c -6.1231,-2.59253 -22.1037,-6.93982 -32.6285,-8.87604 -7.9201,-1.45704 -14.8877,-1.8343 -33.5,-1.81383 -22.2161,0.0244 -24.0302,0.1697 -33.2058,2.65902 -26.6528,7.2309 -46.4135,22.27195 -56.7397,43.18817 -5.488,11.11615 -7.3844,19.6846 -7.322,33.08263 0.088,19.02324 5.2726,33.06563 16.7363,45.33457 9.8638,10.55668 22.6875,18.08838 44.5312,26.15444 17.1891,6.34727 34.9333,15.20964 41.6584,20.8064 3.9526,3.28932 7.0581,7.03674 9.3741,11.31173 3.2936,6.07926 3.4636,6.8834 3.4655,16.39286 0,9.16149 -0.2642,10.56186 -3.1724,16.70071 -7.5985,16.03935 -22.7994,24.00282 -42.7098,22.37478 -27.0547,-2.21221 -46.1005,-20.1031 -61.6075,-57.87184 -4.0449,-9.85153 -4.3219,-10.05572 -10.4711,-7.7178 l -2.8227,1.0732 0.7061,35.22048 c 0.6267,31.25882 0.8948,35.36512 2.3831,36.50646 4.4465,3.40981 33.229,10.24127 53.1963,12.62604 15.5,1.85122 39.2794,1.91342 51,0.1334 z M 1.32918,357.35812 c -0.831425,-0.33549 -1.25,-2.82768 -1.25,-7.44249 0,-8.28566 -0.528105,-7.91468 15.5,-10.88846 12.293146,-2.28081 16.691243,-4.61319 22.119777,-11.73048 C 48.22424,313.49712 50.4992,286.92668 50.52278,177.5204 50.54493,74.774933 48.56558,53.160953 37.680048,37.281193 32.850465,30.235823 24.711543,26.410213 11.07918,24.777763 l -10.5,-1.25736 L 0.28959,15.323143 0,7.125883 3.28959,6.539693 c 1.809274,-0.3224 65.37714,-0.45863 141.26193,-0.30274 l 137.97235,0.28345 0.64691,4 c 0.3558,2.2 0.93977,24.76593 1.29771,50.14651 l 0.6508,46.146497 -7.11382,2.16076 c -10.70826,3.25254 -10.64347,3.29216 -15.46059,-9.453767 -11.8323,-31.30785 -25.4002,-49.34794 -43.9657,-58.45751 -12.80455,-6.28283 -18.72497,-7.04249 -54.88589,-7.04249 l -31.4702,0 -0.54249,5.25 c -1.01732,9.84504 -2.62365,73.175607 -2.61252,102.999997 l 0.0111,29.75 9.25,-0.053 c 5.0875,-0.0292 15.11942,-0.40355 22.29316,-0.83199 10.78407,-0.64407 13.98828,-1.21653 18.5,-3.30517 11.08527,-5.13179 18.62681,-16.42638 23.24707,-34.81597 l 2.38527,-9.49387 8.16225,-0.29044 8.16225,-0.29044 0,60.08088 0,60.08088 -8.16538,-0.29044 -8.16538,-0.29044 -2.31772,-9.5 c -4.35477,-17.84957 -12.73548,-30.62822 -23.09148,-35.20917 -4.78263,-2.11558 -16.6168,-3.31798 -39.51004,-4.01435 l -10.75,-0.327 0,22.57134 c 0,24.59667 1.35218,57.8715 3.08556,75.93029 2.41642,25.17498 8.84969,39.0864 20.40322,44.12029 2.20617,0.96124 9.18622,2.52258 15.51122,3.46964 6.325,0.94707 12.2875,2.1286 13.25,2.62563 2.44095,1.2605 2.585,14.29893 0.16821,15.22634 -1.89137,0.72579 -178.366712,0.67163 -180.16821,-0.0553 z m 179.75,-7.83772 c 0,-3.025 -0.27022,-5.5 -0.60048,-5.5 -4.76476,0 -26.96823,-4.7878 -30.53737,-6.58487 -12.69812,-6.39351 -18.56816,-21.59054 -20.84586,-53.96815 -1.61912,-23.01584 -3.23031,-90.63296 -2.18454,-91.67873 0.94827,-0.94827 43.22729,0.7364 48.16825,1.91933 13.66197,3.27086 24.19247,16.7098 29.46531,37.60337 l 2.32405,9.20905 6.10532,0.29772 6.10532,0.29771 0,-58.04771 0,-58.04772 -6.5,0 c -6.07679,0 -6.5,0.1467 -6.5,2.25318 0,3.78898 -3.79312,15.77876 -7.38384,23.33979 -5.6239,11.84234 -13.54438,18.99034 -23.61616,21.31288 -2.475,0.57073 -14.15803,1.48488 -25.96229,2.03145 -16.64859,0.77086 -21.64384,0.72112 -22.27176,-0.22178 -1.16056,-1.74274 1.48485,-133.404037 2.80335,-139.521777 l 0.49704,-2.30625 36.71683,0.30625 36.71683,0.30626 8.54417,3.05992 c 19.79051,7.08758 34.03091,21.56084 45.92851,46.67954 2.67297,5.64329 6.09901,13.86054 7.6134,18.260537 1.51439,4.4 2.85446,8.13991 2.97792,8.31091 0.12347,0.171 3.40818,-0.65612 7.29937,-1.83803 l 7.07489,-2.14893 -0.49749,-32.661967 c -0.27362,-17.96409 -0.7571,-39.52448 -1.07441,-47.91198 l -0.57693,-15.25 -139.44243,0 -139.442435,0 0.297718,6.24558 0.297717,6.24558 9,1.12568 c 12.006079,1.50167 16.408243,2.80967 21.242843,6.31184 7.328597,5.3088 11.835655,13.10765 14.673777,25.39093 4.40931,19.08339 5.99627,62.120007 5.26129,142.680387 -0.77661,85.12248 -1.85019,102.82646 -7.276904,120 -4.4632,14.12439 -12.770104,21.61183 -26.491104,23.8778 -3.776326,0.62365 -9.125915,1.61856 -11.887975,2.21092 l -5.021927,1.07701 0,5.41713 0,5.41714 89.5,0 89.5,0 0,-5.5 z m 313.20065,7.64885 c -0.9121,-0.58115 -1.21013,-2.88743 -1,-7.73837 l 0.29935,-6.91048 3.5,-0.74531 c 1.925,-0.40992 6.05974,-1.22356 9.18832,-1.80809 9.68246,-1.80904 15.24692,-7.06475 18.37796,-17.35822 2.55083,-8.38604 3.6753,-35.21435 3.734,-89.08838 0.0718,-65.88988 -1.30083,-81.44998 -7.96314,-90.27057 -3.61081,-4.78055 -6.21369,-6.14006 -14.97516,-7.82166 -4.32409,-0.82993 -8.87448,-1.71977 -10.11198,-1.97742 -2.00397,-0.41723 -2.25,-1.07013 -2.25,-5.97084 0,-4.76537 0.30138,-5.62632 2.25,-6.42762 2.99295,-1.23074 102.058,-21.03189 105.22244,-21.03189 l 2.46874,0 -0.48411,14.75 c -0.26627,8.1125 -0.69195,19.925 -0.94596,26.25 l -0.46184,11.5 3.58887,-6.47202 c 11.48885,-20.71848 24.37315,-33.57963 41.50592,-41.43135 9.40502,-4.31019 15.68015,-5.596627 27.29983,-5.596627 13.78023,0 27.55611,4.496327 27.55611,8.994077 0,3.02429 -24.27864,67.17562 -25.61768,67.68945 -0.65322,0.25067 -5.39397,-1.56263 -10.535,-4.02953 -10.7216,-5.14474 -20.7804,-7.66044 -30.54473,-7.63922 -12.15945,0.0264 -25.74231,4.50525 -31.10517,10.25666 -2.29393,2.46012 -2.30473,2.60804 -2.87466,39.34898 -0.56441,36.38493 0.64816,80.76685 2.69433,98.617 1.74315,15.20676 5.78365,22.6935 14.1287,26.17941 2.784,1.16294 20.39811,3.57627 26.14627,3.58233 0.43564,4.6e-4 0.66064,3.48834 0.5,7.75084 l -0.29206,7.75 -74,0.23837 c -40.7,0.1311 -74.58471,-0.13418 -75.29935,-0.58952 z m 147.79935,-7.56353 0,-5.41468 -7.75,-0.65445 c -17.8751,-1.50946 -22.77227,-3.30385 -27.46658,-10.06416 -6.80259,-9.79647 -8.28342,-27.87396 -8.28342,-101.1215 l 0,-57.16946 2.479,-2.63875 c 3.12795,-3.32951 12.90593,-7.97535 19.82022,-9.41724 14.03979,-2.92781 31.98851,-0.39852 46.02576,6.48585 4.02874,1.97584 7.49378,3.42364 7.70009,3.21733 0.41346,-0.41346 23.46934,-61.34061 24.18482,-63.91047 0.3247,-1.16624 -1.00368,-2.18234 -4.88191,-3.73425 -8.3003,-3.32146 -15.49854,-4.46048 -24.78367,-3.92168 -24.8357,1.44118 -46.87666,17.94082 -62.75252,46.9759 -2.63549,4.81999 -5.36517,8.76781 -6.06597,8.77293 -1.01809,0.007 -1.13657,-5.52984 -0.5895,-27.55003 l 0.68469,-27.55933 -2.41051,0.56832 c -1.32577,0.31258 -21.3105,4.36132 -44.4105,8.9972 -49.54328,9.94271 -56.42968,11.39166 -57.61103,12.12177 -0.48893,0.30218 -0.88897,2.08928 -0.88897,3.97134 0,3.77607 -0.44113,3.55716 10.81646,5.36766 15.47448,2.4887 20.94053,10.03415 23.24824,32.09238 3.00891,28.76055 1.80655,140.87795 -1.67494,156.18489 -1.78002,7.82613 -6.37953,15.3638 -11.00942,18.04222 -1.71582,0.99261 -7.11582,2.58508 -12,3.53882 l -8.88034,1.73407 -0.30226,5.25 -0.30226,5.25 73.55226,0 73.55226,0 0,-5.41468 z"
     id="path2995"
     inkscape:connector-curvature="0" />
  <path
     style="opacity:0;fill:#ff0000;fill-opacity:0;stroke:#000000;stroke-width:1.59576797;stroke-opacity:1"
     d="m 0.89359643,350.32315 c 0,-7.35183 1.35560617,-8.2833 16.25819857,-11.17138 17.388669,-3.36986 25.034659,-12.36607 29.37937,-34.56748 C 52.277304,275.2216 52.229639,84.031097 46.469625,57.738468 42.932927,41.594578 37.475404,33.273222 27.460068,28.753664 22.941742,26.714707 15.115879,24.550914 10.069263,23.945234 L 0.89359643,22.843999 V 15.049029 7.2540587 H 141.29078 281.68797 l 0.73522,3.5904783 c 0.40436,1.974763 1.06429,24.203749 1.46651,49.397745 l 0.73127,45.807268 -5.39783,1.78145 C 269.03849,111.19223 267.43372,109.9698 260.6995,93.720725 249.06013,65.635894 234.64272,47.784126 217.12227,39.763 206.38953,34.849389 188.88404,32.852959 156.19686,32.814697 l -24.22063,-0.02835 -0.84554,8.377782 c -0.46505,4.60778 -1.24481,18.790168 -1.73281,31.516418 -0.48799,12.72625 -0.99039,24.21578 -1.11644,25.532289 -0.12605,1.316508 -0.11606,18.959574 0.0222,39.206814 l 0.25139,36.81316 11.56932,-1.43799 c 6.36312,-0.79089 16.05741,-1.10284 21.54286,-0.69319 5.48546,0.40964 9.97355,0.19914 9.97355,-0.46775 0,-0.6669 2.09545,-1.63164 4.65657,-2.14385 10.72798,-2.1456 20.93719,-15.93414 26.48556,-35.77136 l 2.78957,-9.97355 h 7.76856 7.76855 v 59.04342 59.04342 h -7.91734 -7.91732 l -1.71338,-6.78202 c -4.83731,-19.14738 -12.67462,-31.87028 -22.65352,-36.77514 -4.02521,-1.9785 -12.16315,-3.29423 -26.29838,-4.25188 -11.25818,-0.76274 -21.72608,-1.88409 -23.26201,-2.4919 -2.58921,-1.02461 -2.8109,0.91206 -3.04398,26.59263 -0.13826,15.23376 -0.13949,28.77487 -0.003,30.09138 0.13677,1.31651 0.96536,12.80604 1.84131,25.53229 0.87595,12.72625 2.71212,28.30313 4.08037,34.61529 2.36054,10.88987 8.16853,22.17166 12.79939,24.86227 1.16626,0.67763 3.14758,2.25914 4.40293,3.5145 1.25534,1.25534 2.59748,1.96741 2.98252,1.58238 1.04305,-1.04306 25.71848,3.91158 27.28563,5.47874 0.7428,0.74279 1.11873,3.77568 0.83537,6.73971 l -0.51519,5.38916 -90.559839,0.41212 -90.55983457,0.41211 z"
     id="path4626"
     inkscape:connector-curvature="0" />
  <path
     style="opacity:0;fill:#ff0000;fill-opacity:0;stroke:#000000;stroke-width:1.59576797;stroke-opacity:1"
     d="m 0.89359643,350.32315 c 0,-7.35183 1.35560617,-8.2833 16.25819857,-11.17138 17.388669,-3.36986 25.034659,-12.36607 29.37937,-34.56748 C 52.277304,275.2216 52.229639,84.031097 46.469625,57.738468 42.932927,41.594578 37.475404,33.273222 27.460068,28.753664 22.941742,26.714707 15.115879,24.550914 10.069263,23.945234 L 0.89359643,22.843999 V 15.049029 7.2540587 H 141.29078 281.68797 l 0.73522,3.5904783 c 0.40436,1.974763 1.06429,24.203749 1.46651,49.397745 l 0.73127,45.807268 -5.39783,1.78145 C 269.03849,111.19223 267.43372,109.9698 260.6995,93.720725 249.06013,65.635894 234.64272,47.784126 217.12227,39.763 206.38953,34.849389 188.88404,32.852959 156.19686,32.814697 l -24.22063,-0.02835 -0.84554,8.377782 c -0.46505,4.60778 -1.24481,18.790168 -1.73281,31.516418 -0.48799,12.72625 -0.99039,24.21578 -1.11644,25.532289 -0.12605,1.316508 -0.11606,18.959574 0.0222,39.206814 l 0.25139,36.81316 11.56932,-1.43799 c 6.36312,-0.79089 16.05741,-1.10284 21.54286,-0.69319 5.48546,0.40964 9.97355,0.19914 9.97355,-0.46775 0,-0.6669 2.09545,-1.63164 4.65657,-2.14385 10.72798,-2.1456 20.93719,-15.93414 26.48556,-35.77136 l 2.78957,-9.97355 h 7.76856 7.76855 v 59.04342 59.04342 h -7.91734 -7.91732 l -1.71338,-6.78202 c -4.83731,-19.14738 -12.67462,-31.87028 -22.65352,-36.77514 -4.02521,-1.9785 -12.16315,-3.29423 -26.29838,-4.25188 -11.25818,-0.76274 -21.72608,-1.88409 -23.26201,-2.4919 -2.58921,-1.02461 -2.8109,0.91206 -3.04398,26.59263 -0.13826,15.23376 -0.13949,28.77487 -0.003,30.09138 0.13677,1.31651 0.96536,12.80604 1.84131,25.53229 0.87595,12.72625 2.71212,28.30313 4.08037,34.61529 2.36054,10.88987 8.16853,22.17166 12.79939,24.86227 1.16626,0.67763 3.14758,2.25914 4.40293,3.5145 1.25534,1.25534 2.59748,1.96741 2.98252,1.58238 1.04305,-1.04306 25.71848,3.91158 27.28563,5.47874 0.7428,0.74279 1.11873,3.77568 0.83537,6.73971 l -0.51519,5.38916 -90.559839,0.41212 -90.55983457,0.41211 z"
     id="path4628"
     inkscape:connector-curvature="0" />
  <path
     style="opacity:0;fill:#ff0000;fill-opacity:0;stroke:#000000;stroke-width:1.59576797;stroke-opacity:1"
     d="m 340.90179,361.37354 c -55.02529,-10.7937 -88.66369,-54.14256 -92.14422,-118.7437 -3.42587,-63.58659 26.61286,-115.97211 76.9847,-134.25611 49.42408,-17.939975 106.49286,-6.06931 137.0923,28.51605 8.32674,9.4114 21.4725,35.27713 25.35792,49.89454 6.51318,24.50323 6.19321,67.03093 -0.67226,89.35665 -13.69755,44.54274 -43.6688,73.52447 -86.70543,83.84277 -13.92763,3.33922 -46.16295,4.08698 -59.91301,1.3898 z M 385.1295,342.4574 c 13.02131,-5.26812 23.76993,-25.4494 28.225,-52.99438 3.63792,-22.49271 4.6873,-59.79152 2.37265,-84.33373 -1.11747,-11.84858 -2.19166,-23.3381 -2.38709,-25.53229 -0.19544,-2.19418 -0.74984,-5.06656 -1.23201,-6.38307 -0.48218,-1.31651 -2.49033,-7.6846 -4.46255,-14.15131 -4.25097,-13.93847 -13.14253,-28.34941 -21.35779,-34.61549 -4.52745,-3.45326 -8.12166,-4.67008 -15.33566,-5.19189 -11.9181,-0.86208 -17.40038,1.39693 -25.37411,10.45557 -12.85718,14.60653 -18.76867,40.09909 -20.61637,88.90562 -0.69936,18.47341 -0.65501,35.25048 0.0986,37.28238 0.75357,2.03189 1.37013,6.22768 1.37013,9.32395 0,9.67747 6.37759,37.45708 11.33097,49.35563 5.24605,12.60159 13.53612,23.34427 20.98864,27.19811 5.32374,2.75302 19.064,5.29251 20.34074,3.75939 0.43883,-0.52695 3.15633,-1.91227 6.03888,-3.07849 z"
     id="path4630"
     inkscape:connector-curvature="0" />
  <path
     style="opacity:0;fill:#ff0000;fill-opacity:0;stroke:#000000;stroke-width:1.41421354;stroke-opacity:1"
     d="m 2.6329892,349.62962 c 0,-4.77279 0.12861,-4.87515 8.1317278,-6.47207 20.800286,-4.15042 26.580892,-7.52684 32.060229,-18.72621 5.830431,-11.91697 7.967577,-26.88448 9.339841,-65.41166 1.699272,-47.70814 1.660712,-135.8648 -0.07252,-165.78443 C 50.028928,57.61704 46.794319,43.335504 38.579335,33.57255 32.707451,26.594212 27.962746,24.718667 7.93629,21.459584 2.8475326,20.631445 2.6329892,20.370277 2.6329892,15.003759 V 9.4109872 H 141.09321 279.55343 l 0.77583,6.7175148 c 0.4267,3.694632 0.96372,25.098907 1.19336,47.565054 l 0.41755,40.847544 -6.30758,1.87096 c -3.46915,1.02902 -6.38563,1.73951 -6.48104,1.57886 -0.0955,-0.16065 -2.61467,-6.53898 -5.59835,-14.174065 C 252.10073,64.510664 235.69637,44.77847 215.98666,36.600841 l -10.41403,-4.320814 -37.11061,-0.416135 c -23.48805,-0.263379 -37.63113,0.104368 -38.52858,1.001809 -1.61619,1.616188 -5.16673,136.201409 -3.6944,140.038249 0.83444,2.1745 3.01948,2.31081 23.2078,1.44771 12.25765,-0.52405 24.73424,-1.62862 27.72574,-2.45462 11.86569,-3.27627 23.18446,-18.60035 28.16231,-38.1279 1.94563,-7.63251 1.99956,-7.68854 7.81596,-8.1204 l 5.85681,-0.43487 v 57.43828 57.43828 l -5.87365,-0.43487 -5.87365,-0.43487 -2.35006,-8.48528 c -5.07144,-18.31142 -12.4644,-29.4406 -23.19273,-34.91379 -4.69857,-2.39704 -10.06731,-3.17346 -29.63516,-4.28584 -16.67222,-0.94777 -24.35051,-0.90505 -25.39686,0.14128 -1.7361,1.73611 0.93292,89.07539 3.22481,105.52637 4.11309,29.52332 10.86232,39.39384 29.87206,43.68678 5.72509,1.29289 12.80152,2.73325 15.72538,3.20079 4.9263,0.78775 5.3161,1.19977 5.3161,5.61908 v 4.769 H 91.728443 2.6329892 v -4.84948 z"
     id="path4632"
     inkscape:connector-curvature="0" />
  <path
     style="opacity:0;fill:#ff0000;fill-opacity:0;stroke:#000000;stroke-width:1.41421354;stroke-opacity:1"
     d="m 2.6329892,349.62962 c 0,-4.77279 0.12861,-4.87515 8.1317278,-6.47207 20.800286,-4.15042 26.580892,-7.52684 32.060229,-18.72621 5.830431,-11.91697 7.967577,-26.88448 9.339841,-65.41166 1.699272,-47.70814 1.660712,-135.8648 -0.07252,-165.78443 C 50.028928,57.61704 46.794319,43.335504 38.579335,33.57255 32.707451,26.594212 27.962746,24.718667 7.93629,21.459584 2.8475326,20.631445 2.6329892,20.370277 2.6329892,15.003759 V 9.4109872 H 141.09321 279.55343 l 0.77583,6.7175148 c 0.4267,3.694632 0.96372,25.098907 1.19336,47.565054 l 0.41755,40.847544 -6.30758,1.87096 c -3.46915,1.02902 -6.38563,1.73951 -6.48104,1.57886 -0.0955,-0.16065 -2.61467,-6.53898 -5.59835,-14.174065 C 252.10073,64.510664 235.69637,44.77847 215.98666,36.600841 l -10.41403,-4.320814 -37.11061,-0.416135 c -23.48805,-0.263379 -37.63113,0.104368 -38.52858,1.001809 -1.61619,1.616188 -5.16673,136.201409 -3.6944,140.038249 0.83444,2.1745 3.01948,2.31081 23.2078,1.44771 12.25765,-0.52405 24.73424,-1.62862 27.72574,-2.45462 11.86569,-3.27627 23.18446,-18.60035 28.16231,-38.1279 1.94563,-7.63251 1.99956,-7.68854 7.81596,-8.1204 l 5.85681,-0.43487 v 57.43828 57.43828 l -5.87365,-0.43487 -5.87365,-0.43487 -2.35006,-8.48528 c -5.07144,-18.31142 -12.4644,-29.4406 -23.19273,-34.91379 -4.69857,-2.39704 -10.06731,-3.17346 -29.63516,-4.28584 -16.67222,-0.94777 -24.35051,-0.90505 -25.39686,0.14128 -1.7361,1.73611 0.93292,89.07539 3.22481,105.52637 4.11309,29.52332 10.86232,39.39384 29.87206,43.68678 5.72509,1.29289 12.80152,2.73325 15.72538,3.20079 4.9263,0.78775 5.3161,1.19977 5.3161,5.61908 v 4.769 H 91.728443 2.6329892 v -4.84948 z"
     id="path4634"
     inkscape:connector-curvature="0" />
  <path
     style="opacity:0;fill:#ff0000;fill-opacity:0;stroke:#000000;stroke-width:1.41421354;stroke-opacity:1"
     d="m 2.6329892,349.62962 c 0,-4.77279 0.12861,-4.87515 8.1317278,-6.47207 20.800286,-4.15042 26.580892,-7.52684 32.060229,-18.72621 5.830431,-11.91697 7.967577,-26.88448 9.339841,-65.41166 1.699272,-47.70814 1.660712,-135.8648 -0.07252,-165.78443 C 50.028928,57.61704 46.794319,43.335504 38.579335,33.57255 32.707451,26.594212 27.962746,24.718667 7.93629,21.459584 2.8475326,20.631445 2.6329892,20.370277 2.6329892,15.003759 V 9.4109872 H 141.09321 279.55343 l 0.77583,6.7175148 c 0.4267,3.694632 0.96372,25.098907 1.19336,47.565054 l 0.41755,40.847544 -6.30758,1.87096 c -3.46915,1.02902 -6.38563,1.73951 -6.48104,1.57886 -0.0955,-0.16065 -2.61467,-6.53898 -5.59835,-14.174065 C 252.10073,64.510664 235.69637,44.77847 215.98666,36.600841 l -10.41403,-4.320814 -37.11061,-0.416135 c -23.48805,-0.263379 -37.63113,0.104368 -38.52858,1.001809 -1.61619,1.616188 -5.16673,136.201409 -3.6944,140.038249 0.83444,2.1745 3.01948,2.31081 23.2078,1.44771 12.25765,-0.52405 24.73424,-1.62862 27.72574,-2.45462 11.86569,-3.27627 23.18446,-18.60035 28.16231,-38.1279 1.94563,-7.63251 1.99956,-7.68854 7.81596,-8.1204 l 5.85681,-0.43487 v 57.43828 57.43828 l -5.87365,-0.43487 -5.87365,-0.43487 -2.35006,-8.48528 c -5.07144,-18.31142 -12.4644,-29.4406 -23.19273,-34.91379 -4.69857,-2.39704 -10.06731,-3.17346 -29.63516,-4.28584 -16.67222,-0.94777 -24.35051,-0.90505 -25.39686,0.14128 -1.7361,1.73611 0.93292,89.07539 3.22481,105.52637 4.11309,29.52332 10.86232,39.39384 29.87206,43.68678 5.72509,1.29289 12.80152,2.73325 15.72538,3.20079 4.9263,0.78775 5.3161,1.19977 5.3161,5.61908 v 4.769 H 91.728443 2.6329892 v -4.84948 z"
     id="path4636"
     inkscape:connector-curvature="0" />
  <path
     style="opacity:0;fill:#ff0000;fill-opacity:0;stroke:#000000;stroke-width:1.41421354;stroke-opacity:1"
     d="m 341.33714,358.81884 c -22.2487,-4.62651 -37.63257,-12.12403 -51.811,-25.25075 -22.31564,-20.66034 -34.47033,-47.81549 -37.95847,-84.80407 -6.56436,-69.60917 27.98442,-126.04798 86.94104,-142.0267 16.39202,-4.44265 54.32372,-4.46221 70.40905,-0.0363 18.968,5.21907 32.52831,13.22405 47.04038,27.76909 11.0883,11.11351 13.77202,14.81005 20.09295,27.67595 8.53464,17.37178 12.78969,33.01119 14.21576,52.24986 2.16628,29.22481 -2.12769,57.81903 -11.87025,79.04612 -14.34245,31.24927 -43.31944,55.6977 -75.54117,63.73551 -16.59321,4.13922 -45.76322,4.91746 -61.51829,1.6413 z m 45.49951,-14.35768 c 18.26749,-8.84315 27.69318,-32.81074 31.65482,-80.49173 3.75963,-45.24983 -2.43413,-97.01062 -14.43881,-120.66403 -10.8225,-21.32408 -26.58109,-30.73607 -44.08298,-26.32904 -17.23175,4.339 -28.52909,24.07076 -34.36362,60.01893 -3.08113,18.98373 -3.51596,79.45892 -0.70163,97.58074 5.79483,37.3136 18.78671,63.90206 34.58173,70.77313 6.90809,3.0051 20.19985,2.57356 27.35049,-0.888 z"
     id="path4638"
     inkscape:connector-curvature="0" />
  <path
     style="opacity:0;fill:#ff0000;fill-opacity:0;stroke:#000000;stroke-width:1.41421354;stroke-opacity:1"
     d="m 2.6329892,349.62962 c 0,-4.77279 0.12861,-4.87515 8.1317278,-6.47207 20.800286,-4.15042 26.580892,-7.52684 32.060229,-18.72621 5.830431,-11.91697 7.967577,-26.88448 9.339841,-65.41166 1.699272,-47.70814 1.660712,-135.8648 -0.07252,-165.78443 C 50.028928,57.61704 46.794319,43.335504 38.579335,33.57255 32.707451,26.594212 27.962746,24.718667 7.93629,21.459584 2.8475326,20.631445 2.6329892,20.370277 2.6329892,15.003759 V 9.4109872 H 141.09321 279.55343 l 0.77583,6.7175148 c 0.4267,3.694632 0.96372,25.098907 1.19336,47.565054 l 0.41755,40.847544 -6.30758,1.87096 c -3.46915,1.02902 -6.38563,1.73951 -6.48104,1.57886 -0.0955,-0.16065 -2.61467,-6.53898 -5.59835,-14.174065 C 252.10073,64.510664 235.69637,44.77847 215.98666,36.600841 l -10.41403,-4.320814 -37.11061,-0.416135 c -23.48805,-0.263379 -37.63113,0.104368 -38.52858,1.001809 -1.61619,1.616188 -5.16673,136.201409 -3.6944,140.038249 0.83444,2.1745 3.01948,2.31081 23.2078,1.44771 12.25765,-0.52405 24.73424,-1.62862 27.72574,-2.45462 11.86569,-3.27627 23.18446,-18.60035 28.16231,-38.1279 1.94563,-7.63251 1.99956,-7.68854 7.81596,-8.1204 l 5.85681,-0.43487 v 57.43828 57.43828 l -5.87365,-0.43487 -5.87365,-0.43487 -2.35006,-8.48528 c -5.07144,-18.31142 -12.4644,-29.4406 -23.19273,-34.91379 -4.69857,-2.39704 -10.06731,-3.17346 -29.63516,-4.28584 -16.67222,-0.94777 -24.35051,-0.90505 -25.39686,0.14128 -1.7361,1.73611 0.93292,89.07539 3.22481,105.52637 4.11309,29.52332 10.86232,39.39384 29.87206,43.68678 5.72509,1.29289 12.80152,2.73325 15.72538,3.20079 4.9263,0.78775 5.3161,1.19977 5.3161,5.61908 v 4.769 H 91.728443 2.6329892 v -4.84948 z"
     id="path4640"
     inkscape:connector-curvature="0" />
  <path
     style="opacity:0;fill:#ff0000;fill-opacity:0;stroke:#000000;stroke-width:1.41421354;stroke-opacity:1"
     d="m 359.72191,344.0775 c -14.8051,-6.81558 -26.47514,-29.6453 -32.63594,-63.84462 -3.5637,-19.78251 -3.67707,-84.08836 -0.18365,-104.16525 7.2835,-41.85869 22.26139,-61.68646 44.31456,-58.66374 31.8855,4.37039 49.35198,53.0975 46.70744,130.30208 -1.80831,52.79191 -10.15501,80.95326 -27.65752,93.31512 -5.08161,3.58909 -7.49324,4.27867 -16.13832,4.61459 -6.44521,0.25043 -11.7162,-0.31967 -14.40657,-1.55818 z"
     id="path4642"
     inkscape:connector-curvature="0" />
  <path
     style="opacity:0;fill:#ff0000;fill-opacity:0;stroke:#000000;stroke-width:1.41421354;stroke-opacity:1"
     d="m 2.1058047,349.67319 c 0,-4.77279 0.12861,-4.87515 8.1317283,-6.47206 13.261043,-2.64607 17.779873,-4.04566 22.570817,-6.9907 11.762573,-7.23059 16.68406,-23.60608 18.937738,-63.01237 C 53.722617,238.63784 52.647594,80.907648 50.33889,66.73021 46.913091,45.692836 42.861404,36.827413 33.073958,28.953128 29.208407,25.843181 25.140743,24.359012 16.209652,22.799851 9.7361431,21.669726 4.3171467,20.591198 4.1674368,20.403121 4.017727,20.215044 3.4637778,17.674678 2.9364385,14.757862 L 1.9776401,9.4545614 H 141.11655 280.25545 l 0.92885,30.7591446 c 0.51086,16.91753 0.93041,38.252551 0.93232,47.411158 0.003,16.116216 -0.1021,16.692136 -3.27639,17.899016 -8.74418,3.32453 -9.52157,2.88537 -13.59673,-7.680971 C 255.28595,72.02425 242.2672,52.893848 228.31328,43.575774 212.5025,33.017745 209.72129,32.482461 167.62836,31.896098 l -37.41708,-0.521226 -1.085,4.949747 c -0.59674,2.722361 -1.5241,35.121551 -2.0608,71.998201 l -0.97582,67.04845 22.55831,-0.96442 c 12.40708,-0.53043 24.83764,-1.59377 27.62345,-2.36297 12.697,-3.50581 21.32353,-14.09316 27.5589,-33.82309 l 4.04356,-12.79459 5.3033,-0.003 5.3033,-0.003 v 57.27565 57.27565 h -5.47049 -5.4705 l -2.47219,-8.83883 c -4.76799,-17.04713 -13.85724,-30.69383 -23.97751,-36.00015 -3.78255,-1.98328 -29.1369,-4.37056 -48.73881,-4.58908 l -6.22643,-0.0694 0.86481,44.90128 c 1.2039,62.50675 3.89454,81.33245 13.52434,94.626 4.83658,6.6767 10.21421,9.13675 27.45949,12.56163 l 12.32352,2.44742 v 4.75623 4.75621 H 91.201259 2.1058047 Z"
     id="path4644"
     inkscape:connector-curvature="0" />
  <path
     style="opacity:0;fill:#ff0000;fill-opacity:0;stroke:#000000;stroke-width:1.41421354;stroke-opacity:1"
     d="m 2.1058047,349.67319 c 0,-4.77279 0.12861,-4.87515 8.1317283,-6.47206 13.261043,-2.64607 17.779873,-4.04566 22.570817,-6.9907 11.762573,-7.23059 16.68406,-23.60608 18.937738,-63.01237 C 53.722617,238.63784 52.647594,80.907648 50.33889,66.73021 46.913091,45.692836 42.861404,36.827413 33.073958,28.953128 29.208407,25.843181 25.140743,24.359012 16.209652,22.799851 9.7361431,21.669726 4.3171467,20.591198 4.1674368,20.403121 4.017727,20.215044 3.4637778,17.674678 2.9364385,14.757862 L 1.9776401,9.4545614 H 141.11655 280.25545 l 0.92885,30.7591446 c 0.51086,16.91753 0.93041,38.252551 0.93232,47.411158 0.003,16.116216 -0.1021,16.692136 -3.27639,17.899016 -8.74418,3.32453 -9.52157,2.88537 -13.59673,-7.680971 C 255.28595,72.02425 242.2672,52.893848 228.31328,43.575774 212.5025,33.017745 209.72129,32.482461 167.62836,31.896098 l -37.41708,-0.521226 -1.085,4.949747 c -0.59674,2.722361 -1.5241,35.121551 -2.0608,71.998201 l -0.97582,67.04845 22.55831,-0.96442 c 12.40708,-0.53043 24.83764,-1.59377 27.62345,-2.36297 12.697,-3.50581 21.32353,-14.09316 27.5589,-33.82309 l 4.04356,-12.79459 5.3033,-0.003 5.3033,-0.003 v 57.27565 57.27565 h -5.47049 -5.4705 l -2.47219,-8.83883 c -4.76799,-17.04713 -13.85724,-30.69383 -23.97751,-36.00015 -3.78255,-1.98328 -29.1369,-4.37056 -48.73881,-4.58908 l -6.22643,-0.0694 0.86481,44.90128 c 1.2039,62.50675 3.89454,81.33245 13.52434,94.626 4.83658,6.6767 10.21421,9.13675 27.45949,12.56163 l 12.32352,2.44742 v 4.75623 4.75621 H 91.201259 2.1058047 Z"
     id="path4646"
     inkscape:connector-curvature="0" />
  <path
     style="opacity:0;fill:#ff0000;fill-opacity:0;stroke:#000000;stroke-width:1.41421354;stroke-opacity:1"
     d="m 2.1058047,349.67319 c 0,-4.77279 0.12861,-4.87515 8.1317283,-6.47206 13.261043,-2.64607 17.779873,-4.04566 22.570817,-6.9907 11.762573,-7.23059 16.68406,-23.60608 18.937738,-63.01237 C 53.722617,238.63784 52.647594,80.907648 50.33889,66.73021 46.913091,45.692836 42.861404,36.827413 33.073958,28.953128 29.208407,25.843181 25.140743,24.359012 16.209652,22.799851 9.7361431,21.669726 4.3171467,20.591198 4.1674368,20.403121 4.017727,20.215044 3.4637778,17.674678 2.9364385,14.757862 L 1.9776401,9.4545614 H 141.11655 280.25545 l 0.92885,30.7591446 c 0.51086,16.91753 0.93041,38.252551 0.93232,47.411158 0.003,16.116216 -0.1021,16.692136 -3.27639,17.899016 -8.74418,3.32453 -9.52157,2.88537 -13.59673,-7.680971 C 255.28595,72.02425 242.2672,52.893848 228.31328,43.575774 212.5025,33.017745 209.72129,32.482461 167.62836,31.896098 l -37.41708,-0.521226 -1.085,4.949747 c -0.59674,2.722361 -1.5241,35.121551 -2.0608,71.998201 l -0.97582,67.04845 22.55831,-0.96442 c 12.40708,-0.53043 24.83764,-1.59377 27.62345,-2.36297 12.697,-3.50581 21.32353,-14.09316 27.5589,-33.82309 l 4.04356,-12.79459 5.3033,-0.003 5.3033,-0.003 v 57.27565 57.27565 h -5.47049 -5.4705 l -2.47219,-8.83883 c -4.76799,-17.04713 -13.85724,-30.69383 -23.97751,-36.00015 -3.78255,-1.98328 -29.1369,-4.37056 -48.73881,-4.58908 l -6.22643,-0.0694 0.86481,44.90128 c 1.2039,62.50675 3.89454,81.33245 13.52434,94.626 4.83658,6.6767 10.21421,9.13675 27.45949,12.56163 l 12.32352,2.44742 v 4.75623 4.75621 H 91.201259 2.1058047 Z"
     id="path4648"
     inkscape:connector-curvature="0" />
  <path
     style="opacity:0;fill:#ff0000;fill-opacity:0;stroke:#000000;stroke-width:1.41421354;stroke-opacity:1"
     d="m 2.1058047,349.67319 c 0,-4.77279 0.12861,-4.87515 8.1317283,-6.47206 13.261043,-2.64607 17.779873,-4.04566 22.570817,-6.9907 11.762573,-7.23059 16.68406,-23.60608 18.937738,-63.01237 C 53.722617,238.63784 52.647594,80.907648 50.33889,66.73021 46.913091,45.692836 42.861404,36.827413 33.073958,28.953128 29.208407,25.843181 25.140743,24.359012 16.209652,22.799851 9.7361431,21.669726 4.3171467,20.591198 4.1674368,20.403121 4.017727,20.215044 3.4637778,17.674678 2.9364385,14.757862 L 1.9776401,9.4545614 H 141.11655 280.25545 l 0.92885,30.7591446 c 0.51086,16.91753 0.93041,38.252551 0.93232,47.411158 0.003,16.116216 -0.1021,16.692136 -3.27639,17.899016 -8.74418,3.32453 -9.52157,2.88537 -13.59673,-7.680971 C 255.28595,72.02425 242.2672,52.893848 228.31328,43.575774 212.5025,33.017745 209.72129,32.482461 167.62836,31.896098 l -37.41708,-0.521226 -1.085,4.949747 c -0.59674,2.722361 -1.5241,35.121551 -2.0608,71.998201 l -0.97582,67.04845 22.55831,-0.96442 c 12.40708,-0.53043 24.83764,-1.59377 27.62345,-2.36297 12.697,-3.50581 21.32353,-14.09316 27.5589,-33.82309 l 4.04356,-12.79459 5.3033,-0.003 5.3033,-0.003 v 57.27565 57.27565 h -5.47049 -5.4705 l -2.47219,-8.83883 c -4.76799,-17.04713 -13.85724,-30.69383 -23.97751,-36.00015 -3.78255,-1.98328 -29.1369,-4.37056 -48.73881,-4.58908 l -6.22643,-0.0694 0.86481,44.90128 c 1.2039,62.50675 3.89454,81.33245 13.52434,94.626 4.83658,6.6767 10.21421,9.13675 27.45949,12.56163 l 12.32352,2.44742 v 4.75623 4.75621 H 91.201259 2.1058047 Z"
     id="path4650"
     inkscape:connector-curvature="0" />
  <path
     style="opacity:0;fill:#ff0000;fill-opacity:0;stroke:#000000;stroke-width:1.41421354;stroke-opacity:1"
     d="m 2.1058047,349.67319 c 0,-4.77279 0.12861,-4.87515 8.1317283,-6.47206 13.261043,-2.64607 17.779873,-4.04566 22.570817,-6.9907 11.762573,-7.23059 16.68406,-23.60608 18.937738,-63.01237 C 53.722617,238.63784 52.647594,80.907648 50.33889,66.73021 46.913091,45.692836 42.861404,36.827413 33.073958,28.953128 29.208407,25.843181 25.140743,24.359012 16.209652,22.799851 9.7361431,21.669726 4.3171467,20.591198 4.1674368,20.403121 4.017727,20.215044 3.4637778,17.674678 2.9364385,14.757862 L 1.9776401,9.4545614 H 141.11655 280.25545 l 0.92885,30.7591446 c 0.51086,16.91753 0.93041,38.252551 0.93232,47.411158 0.003,16.116216 -0.1021,16.692136 -3.27639,17.899016 -8.74418,3.32453 -9.52157,2.88537 -13.59673,-7.680971 C 255.28595,72.02425 242.2672,52.893848 228.31328,43.575774 212.5025,33.017745 209.72129,32.482461 167.62836,31.896098 l -37.41708,-0.521226 -1.085,4.949747 c -0.59674,2.722361 -1.5241,35.121551 -2.0608,71.998201 l -0.97582,67.04845 22.55831,-0.96442 c 12.40708,-0.53043 24.83764,-1.59377 27.62345,-2.36297 12.697,-3.50581 21.32353,-14.09316 27.5589,-33.82309 l 4.04356,-12.79459 5.3033,-0.003 5.3033,-0.003 v 57.27565 57.27565 h -5.47049 -5.4705 l -2.47219,-8.83883 c -4.76799,-17.04713 -13.85724,-30.69383 -23.97751,-36.00015 -3.78255,-1.98328 -29.1369,-4.37056 -48.73881,-4.58908 l -6.22643,-0.0694 0.86481,44.90128 c 1.2039,62.50675 3.89454,81.33245 13.52434,94.626 4.83658,6.6767 10.21421,9.13675 27.45949,12.56163 l 12.32352,2.44742 v 4.75623 4.75621 H 91.201259 2.1058047 Z"
     id="path4652"
     inkscape:connector-curvature="0" />
  <path
     style="opacity:0;fill:#ff0000;fill-opacity:0;stroke:#000000;stroke-width:1.41421354;stroke-opacity:1"
     d="m 2.1058047,349.67319 c 0,-4.77279 0.12861,-4.87515 8.1317283,-6.47206 13.261043,-2.64607 17.779873,-4.04566 22.570817,-6.9907 11.762573,-7.23059 16.68406,-23.60608 18.937738,-63.01237 C 53.722617,238.63784 52.647594,80.907648 50.33889,66.73021 46.913091,45.692836 42.861404,36.827413 33.073958,28.953128 29.208407,25.843181 25.140743,24.359012 16.209652,22.799851 9.7361431,21.669726 4.3171467,20.591198 4.1674368,20.403121 4.017727,20.215044 3.4637778,17.674678 2.9364385,14.757862 L 1.9776401,9.4545614 H 141.11655 280.25545 l 0.92885,30.7591446 c 0.51086,16.91753 0.93041,38.252551 0.93232,47.411158 0.003,16.116216 -0.1021,16.692136 -3.27639,17.899016 -8.74418,3.32453 -9.52157,2.88537 -13.59673,-7.680971 C 255.28595,72.02425 242.2672,52.893848 228.31328,43.575774 212.5025,33.017745 209.72129,32.482461 167.62836,31.896098 l -37.41708,-0.521226 -1.085,4.949747 c -0.59674,2.722361 -1.5241,35.121551 -2.0608,71.998201 l -0.97582,67.04845 22.55831,-0.96442 c 12.40708,-0.53043 24.83764,-1.59377 27.62345,-2.36297 12.697,-3.50581 21.32353,-14.09316 27.5589,-33.82309 l 4.04356,-12.79459 5.3033,-0.003 5.3033,-0.003 v 57.27565 57.27565 h -5.47049 -5.4705 l -2.47219,-8.83883 c -4.76799,-17.04713 -13.85724,-30.69383 -23.97751,-36.00015 -3.78255,-1.98328 -29.1369,-4.37056 -48.73881,-4.58908 l -6.22643,-0.0694 0.86481,44.90128 c 1.2039,62.50675 3.89454,81.33245 13.52434,94.626 4.83658,6.6767 10.21421,9.13675 27.45949,12.56163 l 12.32352,2.44742 v 4.75623 4.75621 H 91.201259 2.1058047 Z"
     id="path4654"
     inkscape:connector-curvature="0" />
  <path
     style="display:inline;opacity:0;fill:#ff0000;fill-opacity:0;stroke:#000000;stroke-width:1.41421354;stroke-opacity:1"
     d="m 2.1058047,349.67319 c 0,-4.77279 0.12861,-4.87515 8.1317283,-6.47206 13.261043,-2.64607 17.779873,-4.04566 22.570817,-6.9907 11.762573,-7.23059 16.68406,-23.60608 18.937738,-63.01237 C 53.722617,238.63784 52.647594,80.907648 50.33889,66.73021 46.913091,45.692836 42.861404,36.827413 33.073958,28.953128 29.208407,25.843181 25.140743,24.359012 16.209652,22.799851 9.7361431,21.669726 4.3171467,20.591198 4.1674368,20.403121 4.017727,20.215044 3.4637778,17.674678 2.9364385,14.757862 L 1.9776401,9.4545614 H 141.11655 280.25545 l 0.92885,30.7591446 c 0.51086,16.91753 0.93041,38.252551 0.93232,47.411158 0.003,16.116216 -0.1021,16.692136 -3.27639,17.899016 -8.74418,3.32453 -9.52157,2.88537 -13.59673,-7.680971 C 255.28595,72.02425 242.2672,52.893848 228.31328,43.575774 212.5025,33.017745 209.72129,32.482461 167.62836,31.896098 l -37.41708,-0.521226 -1.085,4.949747 c -0.59674,2.722361 -1.5241,35.121551 -2.0608,71.998201 l -0.97582,67.04845 22.55831,-0.96442 c 12.40708,-0.53043 24.83764,-1.59377 27.62345,-2.36297 12.697,-3.50581 21.32353,-14.09316 27.5589,-33.82309 l 4.04356,-12.79459 5.3033,-0.003 5.3033,-0.003 v 57.27565 57.27565 h -5.47049 -5.4705 l -2.47219,-8.83883 c -4.76799,-17.04713 -13.85724,-30.69383 -23.97751,-36.00015 -3.78255,-1.98328 -29.1369,-4.37056 -48.73881,-4.58908 l -6.22643,-0.0694 0.86481,44.90128 c 1.2039,62.50675 3.89454,81.33245 13.52434,94.626 4.83658,6.6767 10.21421,9.13675 27.45949,12.56163 l 12.32352,2.44742 v 4.75623 4.75621 H 91.201259 2.1058047 Z"
     id="path4656"
     inkscape:connector-curvature="0" />
</svg>
