<?xml version="1.0" encoding="UTF-8" standalone="no"?>
<svg
   xmlns:dc="http://purl.org/dc/elements/1.1/"
   xmlns:cc="http://creativecommons.org/ns#"
   xmlns:rdf="http://www.w3.org/1999/02/22-rdf-syntax-ns#"
   xmlns:svg="http://www.w3.org/2000/svg"
   xmlns="http://www.w3.org/2000/svg"
   xmlns:sodipodi="../../../sodipodi.sourceforge.net/DTD/sodipodi-0.html"
   xmlns:inkscape="http://www.inkscape.org/namespaces/inkscape"
   id="US_CTM_"
   data-name="US (CTM)"
   viewBox="0 0 194.19423 37.9675"
   version="1.1"
   sodipodi:docname="tripadvisor.html"
   inkscape:version="0.92.2 (5c3e80d, 2017-08-06)"
   width="194.19423"
   height="37.967499">
  <metadata
     id="metadata3836">
    <rdf:RDF>
      <cc:Work
         rdf:about="">
        <dc:format>image/svg+xml</dc:format>
        <dc:type
           rdf:resource="http://purl.org/dc/dcmitype/StillImage" />
        <dc:title>TA_logo_newGreen_primary</dc:title>
      </cc:Work>
    </rdf:RDF>
  </metadata>
  <sodipodi:namedview
     pagecolor="#ffffff"
     bordercolor="#666666"
     borderopacity="1"
     objecttolerance="10"
     gridtolerance="10"
     guidetolerance="10"
     inkscape:pageopacity="0"
     inkscape:pageshadow="2"
     inkscape:window-width="1920"
     inkscape:window-height="1137"
     id="namedview3834"
     showgrid="false"
     inkscape:zoom="1.432"
     inkscape:cx="69.19382"
     inkscape:cy="18.98375"
     inkscape:window-x="-8"
     inkscape:window-y="-8"
     inkscape:window-maximized="1"
     inkscape:current-layer="US_CTM_"
     fit-margin-top="0"
     fit-margin-left="0"
     fit-margin-right="0"
     fit-margin-bottom="0" />
  <defs
     id="defs3783">
    <style
       id="style3781">.cls-1{fill:#fac415;}.cls-2{fill:#fff;}.cls-3{fill:#ee6946;}.cls-4{fill:#00af87;}.cls-5{opacity:0.5;}</style>
  </defs>
  <title
     id="title3785">TA_logo_newGreen_primary</title>
  <path
     class="cls-4"
     d="m 123.12235,3.71234 a 2.42882,2.42882 0 1 0 2.42912,-2.43057 2.43229,2.43229 0 0 0 -2.42912,2.43057 z"
     id="path3803"
     style="fill:#ffffff"
     inkscape:connector-curvature="0" />
  <path
     d="M 7.76088,3.54368 4.08147,4.81176 V 9.61765 H 0 v 3.22206 h 3.96382 v 10.34367 c 0,4.92368 1.67941,6.92926 5.791,6.92926 a 11.51784,11.51784 0 0 0 3.04176,-0.39926 l 0.16088,-0.04382 -0.04529,-3.33618 -0.28368,0.09912 a 6.05648,6.05648 0 0 1 -1.93074,0.42221 c -1.93088,0 -2.64971,-1.09132 -2.64971,-4.02472 v -9.99028 h 4.71118 V 9.61765 H 8.04808 V 3.44456 Z"
     id="path3805"
     style="fill:#ffffff"
     inkscape:connector-curvature="0" />
  <path
     d="M 20.495,12.88059 V 9.61765 h -3.731 v 20.14382 h 4.08279 V 19.64971 c 0,-4.24088 1.77868,-6.57529 5.00779,-6.57529 a 5.17342,5.17342 0 0 1 1.47059,0.22763 l 0.26779,0.07545 0.13221,-3.97882 -1.755,-0.13426 A 6.006,6.006 0 0 0 20.495,12.88059 Z"
     id="path3807"
     style="fill:#ffffff"
     inkscape:connector-curvature="0" />
  <path
     d="m 49.64323,9.14588 a 7.81777,7.81777 0 0 0 -6.73041,3.74338 V 9.61765 H 39.18103 V 37.9675 h 4.085 V 26.97544 a 7.41651,7.41651 0 0 0 6.22279,3.09691 c 5.16426,0 8.49971,-4.22926 8.49971,-10.77588 0,-6.07191 -3.35265,-10.15059 -8.3453,-10.15059 z m -1.136,17.62912 c -3.23132,0 -5.24118,-2.76015 -5.24118,-7.205 0,-4.28029 2.11971,-7.04632 5.39838,-7.04632 3.1581,0 5.04294,2.61955 5.04294,7.009 -2e-5,4.46776 -1.99255,7.24232 -5.20017,7.24232 z"
     id="path3809"
     style="fill:#ffffff"
     inkscape:connector-curvature="0" />
  <path
     class="cls-4"
     d="m 69.92117,9.14588 a 15.09353,15.09353 0 0 0 -6.68868,1.43618 l -0.12632,0.05882 0.0459,3.48632 0.31809,-0.1781 a 11.17064,11.17064 0 0 1 5.39118,-1.62072 c 2.95632,0 4.65162,1.69529 4.65162,4.65235 v 0.17309 h -2.33441 c -6.72324,0 -10.42412,2.43485 -10.42412,6.85529 0,3.54721 2.66912,6.02588 6.49632,6.02588 a 7.71159,7.71159 0 0 0 6.53574,-3.18676 v 2.91324 h 3.69456 V 17.56735 c 0,-5.58794 -2.54206,-8.42147 -7.55986,-8.42147 z M 73.51294,21.259 c 0,3.47249 -2.08735,5.71147 -5.32088,5.71147 a 3.12047,3.12047 0 0 1 -3.35544,-3.16029 c 0,-2.44279 2.33515,-3.78706 6.576,-3.78706 h 2.10029 V 21.259 Z"
     id="path3811"
     style="fill:#ffffff"
     inkscape:connector-curvature="0" />
  <path
     class="cls-4"
     d="m 94.83147,0 v 12.352 a 7.36679,7.36679 0 0 0 -6.301,-3.20616 c -4.98971,0 -8.34162,4.111 -8.34162,10.22809 0,6.30029 3.39706,10.69838 8.26412,10.69838 a 7.50512,7.50512 0 0 0 6.6931,-3.76044 v 3.44956 h 3.77117 V 0 H 94.8315 Z M 89.515,26.69529 c -3.11279,0 -5.04662,-2.71426 -5.04662,-7.085 0,-4.3759 1.95029,-7.20368 4.96618,-7.20368 3.3806,0 5.39691,2.69353 5.39691,7.20368 0,4.30471 -2.08736,7.085 -5.31647,7.085 z"
     id="path3813"
     style="fill:#ffffff"
     inkscape:connector-curvature="0" />
  <path
     class="cls-4"
     d="M 117.16882,9.61765 111.37338,21.24309 106.0225,9.61765 h -4.60354 l 9.87266,20.14382 10.1412,-20.14382 z"
     id="path3815"
     style="fill:#ffffff"
     inkscape:connector-curvature="0" />
  <path
     class="cls-4"
     d="m 127.3847,9.61765 h -3.86955 v 20.14382 h 4.08646 V 9.61765 Z"
     id="path3817"
     style="fill:#ffffff"
     inkscape:connector-curvature="0" />
  <path
     class="cls-4"
     d="m 132.38956,14.78206 c 0,2.83559 1.94824,4.32691 5.53985,6.08118 2.26765,1.11515 3.45324,1.77 3.45324,3.34118 0,1.60706 -1.45838,2.65029 -3.71161,2.65029 a 11.851,11.851 0 0 1 -5.12633,-1.31544 l -0.29941,-0.145 -0.13648,3.54867 0.14294,0.05809 a 14.30313,14.30313 0 0 0 5.26265,0.99456 c 4.99559,0 8.22471,-2.38044 8.22471,-6.06618 0,-3.07471 -2.04574,-4.63074 -5.58221,-6.28382 -2.59588,-1.21426 -3.68146,-1.92941 -3.68146,-3.21765 0,-1.22926 1.20778,-2.02132 3.079,-2.02132 a 11.32021,11.32021 0 0 1 4.89426,1.11809 l 0.29162,0.13926 0.18529,-3.479 -0.16515,-0.05029 a 17.62676,17.62676 0 0 0 -4.96971,-0.75325 c -4.42694,3e-5 -7.4012,2.16931 -7.4012,5.40063 z"
     id="path3819"
     style="fill:#ffffff"
     inkscape:connector-curvature="0" />
  <path
     class="cls-4"
     d="m 158.4775,9.14588 c -6.13868,0 -9.95162,4.03985 -9.95162,10.54338 0,6.50353 3.81294,10.544 9.95162,10.544 6.16456,0 9.99544,-4.04059 9.99544,-10.544 0,-6.50341 -3.83088,-10.54338 -9.99544,-10.54338 z m 0.0394,17.74838 c -3.39059,0 -5.67191,-2.91324 -5.67191,-7.24456 0,-4.35426 2.28132,-7.28176 5.67191,-7.28176 3.44825,0 5.67485,2.85632 5.67485,7.28176 0,4.4003 -2.22661,7.24456 -5.67485,7.24456 z"
     id="path3821"
     style="fill:#ffffff"
     inkscape:connector-curvature="0" />
  <path
     class="cls-4"
     d="M 176.00897,12.88059 V 9.61765 h -3.72971 v 20.14382 h 4.083 V 19.64971 c 0,-4.24088 1.78072,-6.57529 5.00631,-6.57529 a 5.14678,5.14678 0 0 1 1.47059,0.22763 l 0.26853,0.07545 0.13353,-3.97882 -1.75559,-0.13426 a 6.00967,6.00967 0 0 0 -5.47666,3.61617 z"
     id="path3823"
     style="fill:#ffffff"
     inkscape:connector-curvature="0" />
  <path
     d="m 35.00558,9.61765 h -3.87044 v 20.14382 h 4.08647 V 9.61765 h -0.216 z"
     id="path3825"
     style="fill:#ffffff"
     inkscape:connector-curvature="0" />
  <path
     d="M 30.74103,3.71234 A 2.42956,2.42956 0 1 0 33.17088,1.28177 2.43377,2.43377 0 0 0 30.74103,3.71234 Z"
     id="path3827"
     style="fill:#ffffff"
     inkscape:connector-curvature="0" />
  <g
     class="cls-5"
     id="g3831"
     style="opacity:0.5;fill:#ffffff"
     transform="translate(-55.80618)">
    <path
       class="cls-4"
       d="m 248.979,6.77132 a 3.57822,3.57822 0 0 1 1.021,2.55206 3.51344,3.51344 0 0 1 -1.08147,2.58926 3.70113,3.70113 0 0 1 -2.57059,1.06206 3.57369,3.57369 0 0 1 -2.59074,-1.11162 3.61641,3.61641 0 0 1 -1.04911,-2.53971 3.68563,3.68563 0 0 1 1.10791,-2.62308 3.54154,3.54154 0 0 1 2.53191,-1.03118 3.59428,3.59428 0 0 1 2.63109,1.10221 z m -4.70118,0.4 a 3.01908,3.01908 0 0 0 -0.89838,2.15206 3.0017,3.0017 0 0 0 2.96853,2.97912 3.03267,3.03267 0 0 0 2.1125,-0.85941 3.00675,3.00675 0 0 0 0.0388,-4.21221 2.949,2.949 0 0 0 -2.13913,-0.90118 2.89011,2.89011 0 0 0 -2.08238,0.84162 z m 2.1406,0.06882 c 1.151,0 1.73117,0.41147 1.73117,1.16118 a 1.0949,1.0949 0 0 1 -0.85015,1.08147 l 0.889,1.75912 h -1.20853 l -0.75117,-1.589 h -0.32163 v 1.589 h -1.09868 V 7.24015 h 1.61 z m -0.51133,1.76147 h 0.39279 c 0.47971,0 0.71882,-0.17016 0.71882,-0.51985 0,-0.38926 -0.25,-0.54926 -0.77912,-0.54926 h -0.3325 v 1.06912 z"
       id="path3829"
       style="fill:#ffffff"
       inkscape:connector-curvature="0" />
  </g>
</svg>
