<?xml version="1.0" encoding="UTF-8" standalone="no"?>
<svg
   xmlns:dc="http://purl.org/dc/elements/1.1/"
   xmlns:cc="http://creativecommons.org/ns#"
   xmlns:rdf="http://www.w3.org/1999/02/22-rdf-syntax-ns#"
   xmlns:svg="http://www.w3.org/2000/svg"
   xmlns="http://www.w3.org/2000/svg"
   height="125"
   width="125"
   xml:space="preserve"
   id="svg2"
   version="1.1"><metadata
     id="metadata8"><rdf:RDF><cc:Work
         rdf:about=""><dc:format>image/svg+xml</dc:format><dc:type
           rdf:resource="http://purl.org/dc/dcmitype/StillImage" /></cc:Work></rdf:RDF></metadata>
<defs id="defs"></defs><g><circle cx="62" cy="62" r="56" stroke="#333333" stroke-width="1" fill="#cccccc"></circle><circle cx="62" cy="62" r="50" stroke="#e0e0e0" stroke-width="2" fill="#f7f7f7"></circle><path d="M93.98916687271971,28.967443138615096A46,46,0,0,1,95.0269119345812,95.0269119345812L86.89518395093592,86.89518395093586A34.5,34.5,0,0,0,86.11687515453977,37.35058235396132Z" stroke="none" stroke-width="0" fill="#109618"></path><path d="M29.466190302893324,30.488011356753525A46,46,0,0,1,93.9891668727197,28.967443138615096L86.11687515453978,37.35058235396133A34.5,34.5,0,0,0,37.72464272716999,38.49100851756515Z" stroke="none" stroke-width="0" fill="#ff9900"></path><path d="M29.973088065418814,95.0269119345812A46,46,0,0,1,29.466190302893324,30.488011356753525L37.72464272716999,38.49100851756515A34.5,34.5,0,0,0,38.10481604906411,86.89518395093589Z" stroke="none" stroke-width="0" fill="#dc3912"></path><text text-anchor="start" x="38.59979079589469" y="88.5002092041053" font-family="arial" font-size="6" stroke="none" stroke-width="0" fill="#333333">0</text><text text-anchor="end" x="86.40020920410534" y="88.50020920410527" font-family="arial" font-size="6" stroke="none" stroke-width="0" fill="#333333">100</text><path d="M27.200697195740588,84.13144057924029L23.27855243971176,86.53493397693364M23.126260225380648,75.29330356712282L18.75140025042294,76.71478174124758M21.227622383448505,65.74820656313278L16.641802648276112,66.10911840348088M21.6097026993613,56.023613147334444L17.066336332623663,55.30401460814939M29.006696432877177,38.165690555091615L25.285218258752415,35.46187839454624M35.61285079913038,31.019193024158735L32.62538977681153,27.52132558239859M43.70479331078276,25.612329898601573L41.61643701198084,21.51369988733508M52.83536193636553,22.243885295536188L51.76151326262836,17.77098366170687M72.16463806363446,22.24388529553618L73.23848673737162,17.770983661706865M81.29520668921722,25.612329898601566L83.38356298801915,21.513699887335072M89.38714920086962,31.019193024158724L92.37461022318845,27.521325582398582M95.99330356712281,38.1656905550916L99.71478174124758,35.461878394546225M103.39029730063871,56.02361314733443L107.93366366737632,55.304014608149366M103.7723776165515,65.74820656313275L108.35819735172389,66.10911840348084M101.87373977461937,75.29330356712282L106.24859974957707,76.71478174124758M97.79930280425944,84.13144057924026L101.72144756028825,86.53493397693362" stroke="#666666" stroke-width="1" fill-opacity="1" fill="none"></path><path d="M36.478470452335046,88.52152954766495L29.973088065418814,95.0269119345812M28.501233203584633,48.417249688964716L20.001541504480798,44.896562111205895M62.49999999999999,25.699999999999996L62.49999999999999,16.5M96.49876679641537,48.4172496889647L104.9984584955192,44.89656211120588M88.52152954766498,88.52152954766493L95.02691193458122,95.02691193458115" stroke="#333333" stroke-width="2" fill-opacity="1" fill="none"></path><g><text text-anchor="middle" x="62.5" y="102.05" font-family="arial" font-size="13" stroke="none" stroke-width="0" fill="#000000">73%</text><path d="M101.3856877239025,41.91108817253476C64.00673400191904,65.34572532888559,50.88064817971782,70.47388006409084,50.127281178758295,69.05101739964803C49.373914177798774,67.62815473520523,60.99326599808096,59.65427467111441,101.3856877239025,41.91108817253476" stroke="#c63310" stroke-width="1" fill-opacity="0.7" fill="#dc3912"></path><circle cx="62" cy="62" r="7" stroke="#666666" stroke-width="1" fill="#4684ee"></circle></g></g>
</svg>