<svg xmlns:dc="http://purl.org/dc/elements/1.1/" xmlns:cc="http://creativecommons.org/ns#" xmlns:rdf="http://www.w3.org/1999/02/22-rdf-syntax-ns#"  xmlns="http://www.w3.org/2000/svg" viewBox="25.5046 27.6006 443.793 97.537" height="100%" width="100%" xml:space="preserve" id="svg2" version="1.1" xmlns:xlink="http://www.w3.org/1999/xlink" preserveAspectRatio="xMidYMid meet" ><rect id="svgEditorBackground" x="0" y="0" width="905.3333129882812" height="612" style="fill: none; stroke: none;"/><metadata id="metadata8"><rdf:RDF><cc:Work rdf:about=""><dc:format>image/svg+xml</dc:format><dc:type rdf:resource="http://purl.org/dc/dcmitype/StillImage"/></cc:Work></rdf:RDF></metadata><defs id="defs6"><clipPath id="clipPath22" clipPathUnits="userSpaceOnUse"><path id="path20" d="M 0,459 H 679 V 0 H 0 Z"/></clipPath></defs><g transform="matrix(1.33333 0 0 -1.33333 -205.566 382.499)" id="g10"><g transform="translate(201.5151,219.7158)" id="g12"><path id="path14" style="fill:#2d4462;fill-opacity:1;fill-rule:nonzero;stroke:none" d="M0,0l-7.018,10.449v-15.253l-10.524000000000001,-7.199v43.575l10.524000000000001,-7.2010000000000005l10.585,-15.277v8.036l10.738,-7.345999999999998ZM-19.9,46.313l-8.475999999999999,-4.472999999999999v-64.112l8.475999999999999,-4.472999999999999l46.857,32.059v8.94Z"/></g><g id="g16"><g clip-path="url(#clipPath22)" id="g18"><g transform="translate(245.979,243.8491)" id="g24"><path id="path26" style="fill:#2d4462;fill-opacity:1;fill-rule:nonzero;stroke:none" d="m 0,0 h -2.912 v -14.183 h 2.774 c 4.181,0 8.052,1.715 8.052,7.126 C 7.914,-1.61 4.043,0 0,0 M 0.41,-19.253 H -8.634 V 5.003 h 8.77 c 6.886,0 13.877,-2.879 13.877,-12.06 0,-8.53 -6.921,-12.196 -13.603,-12.196"/></g><g transform="translate(272.1587,237.5469)" id="g28"><path id="path30" style="fill:#2d4462;fill-opacity:1;fill-rule:nonzero;stroke:none" d="m 0,0 c -2.638,0 -4.009,-2.158 -4.009,-4.352 0,-2.192 1.405,-4.419 4.043,-4.419 2.638,0 4.042,2.227 4.042,4.419 C 4.076,-2.158 2.638,0 0,0 m 0,-13.5 c -5.139,0 -9.456,3.564 -9.456,9.148 0,5.584 4.317,9.01 9.456,9.01 5.172,0 9.489,-3.426 9.489,-9.01 C 9.489,-9.936 5.172,-13.5 0,-13.5"/></g><g transform="translate(306.9346,224.5957)" id="g32"><path id="path34" style="fill:#2d4462;fill-opacity:1;fill-rule:nonzero;stroke:none" d="M 0,0 H -5.653 L -9.01,10.623 H -9.078 L -12.367,0 h -5.653 l -5.893,17.062 h 6.064 L -14.902,6.27 h 0.101 l 3.051,10.792 h 5.652 L -2.946,6.27 h 0.069 l 2.98,10.792 h 5.824 z"/></g><g transform="translate(326.2632,224.5957)" id="g36"><path id="path38" style="fill:#2d4462;fill-opacity:1;fill-rule:nonzero;stroke:none" d="M0,0v9.319c0,1.8840000000000003,-0.514,3.596,-2.535,3.596c-1.987,0,-3.0150000000000006,-1.7119999999999997,-3.0150000000000006,-3.665000000000001v-9.25h-5.652000000000001v17.062h5.446999999999999v-2.3640000000000008h0.06700000000000106c0.7889999999999997,1.5060000000000002,2.742,2.844000000000001,5.106,2.844000000000001c4.59,0,6.235,-3.564,6.235,-6.99l1.7763568394002505e-15,-10.552000000000001Z"/></g><g transform="translate(351.8931,224.5957)" id="g40"><path id="path42" style="fill:#2d4462;fill-opacity:1;fill-rule:nonzero;stroke:none" d="M0,0l-9.764,15.862h-0.10200000000000031l0.13700000000000045,-15.862h-5.688000000000001v24.257h6.680999999999999l9.73,-15.827000000000002h0.10200000000000009l-0.1369999999999999,15.827000000000002h5.686999999999999l0,-24.257Z"/></g><g transform="translate(371.8389,237.5469)" id="g44"><path id="path46" style="fill:#2d4462;fill-opacity:1;fill-rule:nonzero;stroke:none" d="m 0,0 c -2.638,0 -4.009,-2.158 -4.009,-4.352 0,-2.192 1.404,-4.419 4.042,-4.419 2.638,0 4.043,2.227 4.043,4.419 C 4.076,-2.158 2.637,0 0,0 m 0,-13.5 c -5.139,0 -9.456,3.564 -9.456,9.148 0,5.584 4.317,9.01 9.456,9.01 5.172,0 9.488,-3.426 9.488,-9.01 C 9.488,-9.936 5.172,-13.5 0,-13.5"/></g><g transform="translate(390.9922,237.4429)" id="g48"><path id="path50" style="fill:#2d4462;fill-opacity:1;fill-rule:nonzero;stroke:none" d="m 0,0 v -6.511 c 0,-1.573 0.514,-2.395 2.125,-2.395 0.547,0 1.232,0.104 1.644,0.274 l 0.069,-4.113 c -0.755,-0.272 -2.055,-0.512 -3.255,-0.512 -4.555,0 -6.063,2.431 -6.063,6.063 V 0 h -2.742 v 4.214 h 2.707 V 8.701 H 0 V 4.214 H 4.008 V 0 Z"/></g><path id="path52" style="fill:#2d4462;fill-opacity:1;fill-rule:nonzero;stroke:none" d="m 397.71,241.657 h 5.618 v -17.062 h -5.618 z m 2.81,2.365 c -1.816,0 -3.222,1.403 -3.222,3.083 0,1.645 1.406,3.082 3.222,3.082 1.78,0 3.22,-1.371 3.22,-3.082 0,-1.749 -1.44,-3.083 -3.22,-3.083"/><path id="path54" style="fill:#2d4462;fill-opacity:1;fill-rule:nonzero;stroke:none" d="m 420.46,241.657 h 5.652 v -17.062 h -5.652 z m 2.843,2.365 c -1.815,0 -3.219,1.403 -3.219,3.083 0,1.645 1.404,3.082 3.219,3.082 1.748,0 3.22,-1.371 3.22,-3.082 0,-1.749 -1.472,-3.083 -3.22,-3.083 m -4.933,2.328 c -0.411,0.137 -0.993,0.24 -1.541,0.24 -2.057,0 -2.501,-1.644 -2.501,-3.219 v -1.714 h 3.802 v -4.214 h -3.802 v -12.847 h -5.619 v 12.847 h -3.117 v 4.214 h 3.117 v 1.644 c 0,4.179 1.645,7.848 7.332,7.848 0.958,0 1.952,-0.104 2.706,-0.345 z"/><g transform="translate(442.3218,235.0796)" id="g56"><path id="path58" style="fill:#2d4462;fill-opacity:1;fill-rule:nonzero;stroke:none" d="M 0,0 C 0,1.781 -1.131,3.254 -3.357,3.254 -5.515,3.254 -7.091,1.748 -7.228,0 Z M 5.139,-3.495 H -7.228 c 0.171,-1.883 2.055,-3.219 4.077,-3.219 1.782,0 3.014,0.752 3.769,1.779 l 3.904,-2.467 c -1.609,-2.326 -4.283,-3.631 -7.743,-3.631 -5.137,0 -9.386,3.255 -9.386,9.012 0,5.584 4.043,9.146 9.216,9.146 5.036,0 8.564,-3.458 8.564,-9.283 0,-0.444 0,-0.926 -0.034,-1.337"/></g><g transform="translate(462.0596,237.0659)" id="g60"><path id="path62" style="fill:#2d4462;fill-opacity:1;fill-rule:nonzero;stroke:none" d="m 0,0 c -0.514,0.139 -0.993,0.171 -1.44,0.171 -3.014,0 -4.007,-2.467 -4.007,-3.87 v -8.771 h -5.619 V 4.591 h 5.414 V 2.125 h 0.068 c 0.856,1.712 2.534,2.947 4.624,2.947 0.446,0 0.925,-0.037 1.199,-0.139 z"/></g><g transform="translate(465.1699,224.4102)" id="g64"><path id="path66" style="fill:#2d4462;fill-opacity:1;fill-rule:nonzero;stroke:none" d="m 0,0 c -1.042,0 -1.932,0.794 -1.932,1.836 0,1.022 0.873,1.875 1.932,1.875 1.024,0 1.896,-0.813 1.896,-1.855 C 1.896,0.816 1.024,0 0,0"/></g><g transform="translate(475.7031,230.9824)" id="g68"><path id="path70" style="fill:#2d4462;fill-opacity:1;fill-rule:nonzero;stroke:none" d="m 0,0 c -0.341,0.454 -1.023,0.756 -1.648,0.756 -1.308,0 -2.178,-1.118 -2.178,-2.425 0,-1.308 0.853,-2.404 2.216,-2.404 0.624,0 1.307,0.248 1.686,0.701 l 1.722,-2.102 c -0.776,-0.757 -2.101,-1.213 -3.485,-1.213 -2.973,0 -5.284,1.894 -5.284,5.018 0,3.072 2.331,5.023 5.266,5.023 1.344,0 2.765,-0.514 3.503,-1.271 z"/></g><g transform="translate(483.4888,231.7588)" id="g72"><path id="path74" style="fill:#2d4462;fill-opacity:1;fill-rule:nonzero;stroke:none" d="m 0,0 c -1.458,0 -2.216,-1.192 -2.216,-2.406 0,-1.211 0.778,-2.444 2.236,-2.444 1.459,0 2.235,1.233 2.235,2.444 C 2.255,-1.192 1.459,0 0,0 m 0,-7.463 c -2.84,0 -5.228,1.971 -5.228,5.057 0,3.089 2.388,4.983 5.228,4.983 2.862,0 5.248,-1.894 5.248,-4.983 0,-3.086 -2.386,-5.057 -5.248,-5.057"/></g><g transform="translate(502.7549,224.5986)" id="g76"><path id="path78" style="fill:#2d4462;fill-opacity:1;fill-rule:nonzero;stroke:none" d="M 0,0 V 5.151 C 0,6.232 -0.246,7.14 -1.344,7.14 -2.406,7.14 -2.917,6.154 -2.917,5.095 V 0 h -3.104 v 5.378 c 0,1.082 -0.419,1.762 -1.347,1.762 -0.985,0 -1.554,-0.89 -1.554,-2.026 V 0 h -3.125 v 9.432 h 3.012 V 8.126 h 0.038 c 0.436,0.797 1.401,1.573 2.822,1.573 1.364,0 2.311,-0.589 2.842,-1.61 0.625,0.983 1.609,1.61 3.011,1.61 2.556,0 3.428,-2.084 3.428,-3.865 L 3.106,0 Z"/></g><g transform="translate(242.7852,215.7412)" id="g80"><path id="path82" style="fill:#2d4462;fill-opacity:1;fill-rule:nonzero;stroke:none" d="m 0,0 h -3.086 l 1.543,3.719 z m -1.991,5.058 -3.503,-8.104 h 1.15 l 0.855,2.064 h 3.893 l 0.865,-2.064 h 1.16 L -1.05,5.058 Z"/></g><path id="path84" style="fill:#2d4462;fill-opacity:1;fill-rule:nonzero;stroke:none" d="m 246.035,212.695 h 1.004 v 8.636 h -1.004 z"/><g transform="translate(251.1748,217.3877)" id="g86"><path id="path88" style="fill:#2d4462;fill-opacity:1;fill-rule:nonzero;stroke:none" d="M 0,0 C 0.896,0 1.494,-0.551 1.585,-1.447 H -1.679 C -1.561,-0.714 -0.93,0 0,0 m 0,0.882 c -1.563,0 -2.743,-1.227 -2.743,-2.854 0,-1.627 1.208,-2.853 2.809,-2.853 0.948,0 1.731,0.386 2.328,1.146 L 2.472,-3.58 1.698,-2.974 1.624,-3.093 C 1.373,-3.498 0.832,-3.932 0.066,-3.932 c -0.93,0 -1.682,0.708 -1.765,1.635 h 4.287 l 0.01,0.114 C 2.61,-2.045 2.61,-1.919 2.61,-1.816 2.61,-0.202 1.561,0.882 0,0.882"/></g><g transform="translate(261.3955,213.6758)" id="g90"><path id="path92" style="fill:#2d4462;fill-opacity:1;fill-rule:nonzero;stroke:none" d="m 0,0 c -0.192,-0.096 -0.416,-0.153 -0.599,-0.153 -0.402,0 -0.651,0.138 -0.651,0.828 V 3.578 H 0.214 V 4.461 H -1.25 V 5.925 H -2.255 V 4.461 h -0.82 l 0.006,0.042 -0.104,0.03 c -0.184,0.053 -0.365,0.061 -0.534,0.061 -0.625,0 -1.208,-0.29 -1.572,-0.762 -0.009,0.176 -0.021,0.363 -0.033,0.514 l -0.01,0.115 h -0.973 l 0.013,-0.137 c 0.03,-0.322 0.044,-0.811 0.044,-1.131 V -0.98 h 1.004 v 2.787 c 0,1.15 0.522,1.838 1.395,1.838 0.202,0 0.424,-0.035 0.488,-0.059 l 0.146,-0.055 0.007,0.047 h 0.943 V 0.465 c 0,-1.402 1.115,-1.512 1.457,-1.512 0.338,0 0.633,0.052 0.931,0.163 l 0.085,0.032 -0.047,0.937 z"/></g><path id="path94" style="fill:#2d4462;fill-opacity:1;fill-rule:nonzero;stroke:none" d="m 262.548,212.695 h 1.004 v 5.441 h -1.004 z"/><g transform="translate(263.0503,220.665)" id="g96"><path id="path98" style="fill:#2d4462;fill-opacity:1;fill-rule:nonzero;stroke:none" d="m 0,0 c -0.318,0 -0.658,-0.264 -0.658,-0.656 0,-0.394 0.34,-0.658 0.658,-0.658 0.317,0 0.657,0.264 0.657,0.658 C 0.657,-0.264 0.317,0 0,0"/></g><g transform="translate(267.9541,218.2695)" id="g100"><path id="path102" style="fill:#2d4462;fill-opacity:1;fill-rule:nonzero;stroke:none" d="m 0,0 c -0.65,0 -1.303,-0.312 -1.683,-0.774 -0.009,0.179 -0.022,0.373 -0.034,0.526 l -0.009,0.115 H -2.7 l 0.013,-0.137 c 0.031,-0.321 0.044,-0.811 0.044,-1.13 v -4.174 h 1.004 v 2.787 c 0,1.316 0.729,1.905 1.451,1.905 0.899,0 1.283,-0.507 1.283,-1.694 v -2.998 h 1.004 v 3.308 C 2.099,-0.847 1.314,0 0,0"/></g><g transform="translate(276.1401,215.4824)" id="g104"><path id="path106" style="fill:#2d4462;fill-opacity:1;fill-rule:nonzero;stroke:none" d="m 0,0 c 0,-1.115 -0.77,-1.894 -1.871,-1.894 -1.263,0 -1.838,0.982 -1.838,1.894 0,0.918 0.575,1.905 1.838,1.905 C -0.822,1.905 0,1.068 0,0 m -0.088,1.978 c -0.443,0.5 -1.139,0.809 -1.861,0.809 -1.628,0 -2.81,-1.182 -2.81,-2.808 0,-1.628 1.155,-2.766 2.81,-2.766 0.711,0 1.418,0.313 1.861,0.804 v -0.635 c 0,-0.874 -0.331,-1.915 -1.906,-1.915 -0.7,0 -1.476,0.372 -1.886,0.905 l -0.089,0.116 -0.725,-0.769 0.081,-0.086 c 0.641,-0.677 1.608,-1.081 2.586,-1.081 2.731,0 2.943,2.166 2.943,2.83 v 5.272 h -1.004 z"/></g><g transform="translate(283.4648,213.9492)" id="g108"><path id="path110" style="fill:#2d4462;fill-opacity:1;fill-rule:nonzero;stroke:none" d="M 0,0 -1.686,4.187 H -2.803 L -0.529,-1.12 -0.934,-2.16 C -1.161,-2.765 -1.408,-3 -1.814,-3 c -0.177,0 -0.354,0.028 -0.516,0.082 l -0.146,0.05 -0.108,-0.955 0.112,-0.023 c 0.223,-0.046 0.466,-0.069 0.701,-0.069 1.061,0 1.479,0.707 1.748,1.398 L 2.629,4.187 H 1.537 Z"/></g><g transform="translate(289.4727,213.4561)" id="g112"><path id="path114" style="fill:#2d4462;fill-opacity:1;fill-rule:nonzero;stroke:none" d="m 0,0 c -1.083,0 -1.838,0.806 -1.838,1.96 0,1.161 0.755,1.972 1.838,1.972 1.089,0 1.849,-0.811 1.849,-1.972 C 1.849,0.806 1.089,0 0,0 m 0,4.813 c -1.673,0 -2.887,-1.2 -2.887,-2.853 0,-1.653 1.214,-2.854 2.887,-2.854 1.679,0 2.898,1.201 2.898,2.854 0,1.653 -1.219,2.853 -2.898,2.853"/></g><g transform="translate(298.4419,213.9629)" id="g116"><path id="path118" style="fill:#2d4462;fill-opacity:1;fill-rule:nonzero;stroke:none" d="M 0,0 V 4.174 H -1.004 V 1.387 c 0,-1.317 -0.729,-1.906 -1.451,-1.906 -0.899,0 -1.283,0.507 -1.283,1.695 V 4.174 H -4.743 V 0.865 c 0,-1.419 0.785,-2.265 2.099,-2.265 0.65,0 1.304,0.311 1.684,0.774 0.009,-0.182 0.022,-0.375 0.034,-0.526 l 0.009,-0.116 H 0.056 L 0.043,-1.131 C 0.009,-0.765 0,-0.247 0,0"/></g><g transform="translate(307.6636,213.9629)" id="g120"><path id="path122" style="fill:#2d4462;fill-opacity:1;fill-rule:nonzero;stroke:none" d="M 0,0 V 4.174 H -1.004 V 1.387 c 0,-1.317 -0.729,-1.906 -1.451,-1.906 -0.899,0 -1.283,0.507 -1.283,1.695 V 4.174 H -4.743 V 0.865 c 0,-1.419 0.785,-2.265 2.1,-2.265 0.65,0 1.303,0.311 1.683,0.774 0.009,-0.178 0.021,-0.368 0.034,-0.526 l 0.009,-0.116 H 0.056 L 0.043,-1.131 C 0.009,-0.765 0,-0.247 0,0"/></g><g transform="translate(314.0391,215.416)" id="g124"><path id="path126" style="fill:#2d4462;fill-opacity:1;fill-rule:nonzero;stroke:none" d="m 0,0 c 0,-0.976 -0.568,-1.96 -1.839,-1.96 -1.084,0 -1.871,0.824 -1.871,1.96 0,1.143 0.787,1.972 1.871,1.972 C -0.568,1.972 0,0.981 0,0 m -1.761,2.854 c -0.724,0 -1.41,-0.311 -1.861,-0.827 v 0.694 h -1.004 v -8.103 h 1.004 v 3.344 c 0.458,-0.503 1.157,-0.816 1.861,-0.816 1.628,0 2.809,1.201 2.809,2.854 0,1.653 -1.181,2.854 -2.809,2.854"/></g><g transform="translate(315.7876,211.1426)" id="g128"><path id="path130" style="fill:#2d4462;fill-opacity:1;fill-rule:nonzero;stroke:none" d="M 0,0 H 0.887 L 1.872,2.857 H 0.814 Z"/></g><g transform="translate(326.708,214.1768)" id="g132"><path id="path134" style="fill:#2d4462;fill-opacity:1;fill-rule:nonzero;stroke:none" d="M 0,0 -1.334,3.96 H -2.246 L -3.558,0.002 -4.736,3.96 h -1.073 l 1.721,-5.441 h 1.003 l 1.285,3.96 1.306,-3.96 H 0.509 L 2.23,3.96 H 1.167 Z"/></g><g transform="translate(332.5977,218.2695)" id="g136"><path id="path138" style="fill:#2d4462;fill-opacity:1;fill-rule:nonzero;stroke:none" d="m 0,0 c -0.648,0 -1.271,-0.284 -1.638,-0.722 v 3.784 h -1.005 v -8.636 h 1.005 v 2.787 c 0,1.316 0.728,1.905 1.45,1.905 0.899,0 1.283,-0.507 1.283,-1.694 V -5.574 H 2.1 v 3.308 C 2.1,-0.847 1.315,0 0,0"/></g><g transform="translate(338.7686,217.3877)" id="g140"><path id="path142" style="fill:#2d4462;fill-opacity:1;fill-rule:nonzero;stroke:none" d="M 0,0 C 0.896,0 1.494,-0.551 1.585,-1.447 H -1.679 C -1.56,-0.714 -0.929,0 0,0 m 0,0.882 c -1.563,0 -2.743,-1.227 -2.743,-2.854 0,-1.627 1.208,-2.853 2.809,-2.853 0.948,0 1.731,0.386 2.328,1.146 L 2.472,-3.58 1.698,-2.974 1.624,-3.093 C 1.373,-3.498 0.832,-3.932 0.066,-3.932 c -0.93,0 -1.682,0.708 -1.765,1.635 h 4.287 l 0.01,0.114 C 2.61,-2.045 2.61,-1.919 2.61,-1.816 2.61,-0.202 1.561,0.882 0,0.882"/></g><g transform="translate(345.3936,218.2695)" id="g144"><path id="path146" style="fill:#2d4462;fill-opacity:1;fill-rule:nonzero;stroke:none" d="m 0,0 c -0.65,0 -1.303,-0.311 -1.683,-0.773 -0.008,0.179 -0.021,0.372 -0.033,0.525 l -0.009,0.115 h -0.974 l 0.012,-0.137 c 0.031,-0.322 0.044,-0.811 0.044,-1.13 v -4.174 h 1.005 v 2.787 c 0,1.316 0.728,1.905 1.45,1.905 0.899,0 1.284,-0.507 1.284,-1.694 V -5.574 H 2.1 v 3.308 C 2.1,-0.847 1.315,0 0,0"/></g><g transform="translate(353.8901,213.9492)" id="g148"><path id="path150" style="fill:#2d4462;fill-opacity:1;fill-rule:nonzero;stroke:none" d="M 0,0 -1.686,4.187 H -2.803 L -0.53,-1.12 -0.934,-2.16 C -1.161,-2.765 -1.408,-3 -1.815,-3 c -0.176,0 -0.353,0.028 -0.515,0.082 l -0.146,0.05 -0.108,-0.955 0.112,-0.023 c 0.223,-0.046 0.466,-0.069 0.702,-0.069 1.06,0 1.478,0.707 1.747,1.398 L 2.629,4.187 H 1.537 Z"/></g><g transform="translate(359.8984,213.4561)" id="g152"><path id="path154" style="fill:#2d4462;fill-opacity:1;fill-rule:nonzero;stroke:none" d="m 0,0 c -1.083,0 -1.838,0.806 -1.838,1.96 0,1.161 0.755,1.972 1.838,1.972 1.089,0 1.849,-0.811 1.849,-1.972 C 1.849,0.806 1.089,0 0,0 m 0,4.813 c -1.673,0 -2.887,-1.2 -2.887,-2.853 0,-1.653 1.214,-2.854 2.887,-2.854 1.679,0 2.898,1.201 2.898,2.854 0,1.653 -1.219,2.853 -2.898,2.853"/></g><g transform="translate(368.8672,213.9629)" id="g156"><path id="path158" style="fill:#2d4462;fill-opacity:1;fill-rule:nonzero;stroke:none" d="M 0,0 V 4.174 H -1.004 V 1.387 c 0,-1.317 -0.729,-1.906 -1.451,-1.906 -0.899,0 -1.283,0.507 -1.283,1.695 V 4.174 H -4.743 V 0.865 c 0,-1.419 0.785,-2.265 2.1,-2.265 0.649,0 1.302,0.311 1.683,0.774 0.009,-0.182 0.022,-0.375 0.034,-0.526 l 0.009,-0.116 H 0.056 L 0.043,-1.131 C 0.009,-0.765 0,-0.247 0,0"/></g><g transform="translate(373.1489,218.2695)" id="g160"><path id="path162" style="fill:#2d4462;fill-opacity:1;fill-rule:nonzero;stroke:none" d="m 0,0 c -0.625,0 -1.208,-0.29 -1.572,-0.762 -0.009,0.177 -0.021,0.365 -0.033,0.514 l -0.009,0.115 h -0.974 l 0.012,-0.137 c 0.031,-0.322 0.044,-0.811 0.044,-1.13 v -4.174 h 1.005 v 2.787 c 0,1.15 0.521,1.838 1.394,1.838 0.203,0 0.425,-0.034 0.488,-0.059 l 0.146,-0.054 0.138,0.971 -0.105,0.03 C 0.35,-0.008 0.168,0 0,0"/></g><g transform="translate(382.4404,214.1768)" id="g164"><path id="path166" style="fill:#2d4462;fill-opacity:1;fill-rule:nonzero;stroke:none" d="M 0,0 -1.334,3.96 H -2.246 L -3.559,0.002 -4.736,3.96 h -1.073 l 1.72,-5.441 h 1.004 l 1.285,3.96 1.306,-3.96 H 0.509 L 2.229,3.96 H 1.167 Z"/></g><g transform="translate(388.0312,217.3877)" id="g168"><path id="path170" style="fill:#2d4462;fill-opacity:1;fill-rule:nonzero;stroke:none" d="M 0,0 C 0.896,0 1.494,-0.551 1.584,-1.447 H -1.679 C -1.561,-0.714 -0.93,0 0,0 m 0,0.882 c -1.564,0 -2.743,-1.227 -2.743,-2.854 0,-1.627 1.208,-2.853 2.809,-2.853 0.947,0 1.73,0.386 2.328,1.146 L 2.472,-3.58 1.697,-2.974 1.624,-3.093 C 1.373,-3.498 0.831,-3.932 0.066,-3.932 c -0.93,0 -1.682,0.708 -1.765,1.635 h 4.287 l 0.01,0.114 c 0.011,0.138 0.011,0.264 0.011,0.367 0,1.614 -1.048,2.698 -2.609,2.698"/></g><g transform="translate(396.6606,215.416)" id="g172"><path id="path174" style="fill:#2d4462;fill-opacity:1;fill-rule:nonzero;stroke:none" d="m 0,0 c 0,-0.976 -0.568,-1.96 -1.838,-1.96 -1.084,0 -1.871,0.824 -1.871,1.96 0,1.143 0.787,1.972 1.871,1.972 C -0.568,1.972 0,0.981 0,0 m -1.76,2.854 c -0.717,0 -1.403,-0.307 -1.861,-0.819 v 3.88 h -1.004 v -8.636 h 1.004 v 0.671 c 0.462,-0.502 1.147,-0.804 1.861,-0.804 1.628,0 2.809,1.201 2.809,2.854 0,1.653 -1.181,2.854 -2.809,2.854"/></g><g transform="translate(400.8633,215.9375)" id="g176"><path id="path178" style="fill:#2d4462;fill-opacity:1;fill-rule:nonzero;stroke:none" d="m 0,0 c -0.956,0.198 -1.143,0.431 -1.143,0.765 0,0.652 0.81,0.685 0.973,0.685 0.508,0 0.954,-0.255 1.165,-0.664 L 1.062,0.654 1.846,1.241 1.792,1.337 C 1.454,1.933 0.68,2.332 -0.136,2.332 c -0.912,0 -1.978,-0.428 -1.978,-1.634 0,-1.144 1.109,-1.407 1.583,-1.519 1.086,-0.255 1.434,-0.468 1.434,-0.876 0,-0.683 -0.686,-0.784 -1.095,-0.784 -0.537,0 -1.072,0.3 -1.334,0.748 l -0.07,0.12 -0.808,-0.6 0.068,-0.099 c 0.461,-0.675 1.247,-1.063 2.155,-1.063 1.005,0 2.077,0.455 2.077,1.733 C 1.896,-0.78 1.312,-0.273 0,0"/></g><g transform="translate(404.5229,220.665)" id="g180"><path id="path182" style="fill:#2d4462;fill-opacity:1;fill-rule:nonzero;stroke:none" d="m 0,0 c -0.318,0 -0.658,-0.264 -0.658,-0.656 0,-0.394 0.34,-0.658 0.658,-0.658 0.317,0 0.657,0.264 0.657,0.658 C 0.657,-0.264 0.317,0 0,0"/></g><path id="path184" style="fill:#2d4462;fill-opacity:1;fill-rule:nonzero;stroke:none" d="m 404.021,212.695 h 1.004 v 5.441 h -1.004 z"/><g transform="translate(409.1602,213.6748)" id="g186"><path id="path188" style="fill:#2d4462;fill-opacity:1;fill-rule:nonzero;stroke:none" d="m 0,0 c -0.191,-0.095 -0.416,-0.152 -0.599,-0.152 -0.402,0 -0.651,0.138 -0.651,0.828 V 3.579 H 0.214 V 4.462 H -1.25 V 5.926 H -2.254 V 4.462 H -3.33 V 3.579 h 1.076 V 0.466 c 0,-1.403 1.114,-1.512 1.456,-1.512 0.337,0 0.633,0.052 0.931,0.163 l 0.086,0.032 -0.048,0.937 z"/></g><g transform="translate(412.6675,217.3877)" id="g190"><path id="path192" style="fill:#2d4462;fill-opacity:1;fill-rule:nonzero;stroke:none" d="M 0,0 C 0.896,0 1.494,-0.551 1.585,-1.447 H -1.679 C -1.561,-0.714 -0.93,0 0,0 m 0,0.882 c -1.563,0 -2.743,-1.227 -2.743,-2.854 0,-1.627 1.208,-2.853 2.809,-2.853 0.947,0 1.73,0.386 2.328,1.146 L 2.472,-3.58 1.697,-2.974 1.624,-3.093 C 1.373,-3.498 0.832,-3.932 0.066,-3.932 c -0.93,0 -1.682,0.708 -1.765,1.635 h 4.287 l 0.01,0.114 C 2.61,-2.045 2.61,-1.919 2.61,-1.816 2.61,-0.202 1.561,0.882 0,0.882"/></g><g transform="translate(419.937,220.665)" id="g194"><path id="path196" style="fill:#2d4462;fill-opacity:1;fill-rule:nonzero;stroke:none" d="m 0,0 c -0.317,0 -0.657,-0.264 -0.657,-0.656 0,-0.394 0.34,-0.658 0.657,-0.658 0.318,0 0.658,0.264 0.658,0.658 C 0.658,-0.264 0.318,0 0,0"/></g><path id="path198" style="fill:#2d4462;fill-opacity:1;fill-rule:nonzero;stroke:none" d="m 419.435,212.695 h 1.004 v 5.441 h -1.004 z"/><g transform="translate(423.9795,215.9375)" id="g200"><path id="path202" style="fill:#2d4462;fill-opacity:1;fill-rule:nonzero;stroke:none" d="m 0,0 c -0.956,0.198 -1.143,0.431 -1.143,0.765 0,0.652 0.81,0.685 0.973,0.685 0.508,0 0.954,-0.255 1.164,-0.664 L 1.062,0.654 1.846,1.241 1.792,1.337 c -0.338,0.596 -1.113,0.995 -1.929,0.995 -0.912,0 -1.977,-0.428 -1.977,-1.634 0,-1.143 1.109,-1.407 1.582,-1.519 1.086,-0.255 1.435,-0.468 1.435,-0.876 0,-0.683 -0.686,-0.784 -1.095,-0.784 -0.536,0 -1.073,0.3 -1.334,0.748 l -0.071,0.12 -0.807,-0.6 0.068,-0.099 c 0.461,-0.675 1.247,-1.063 2.155,-1.063 1.004,0 2.077,0.455 2.077,1.733 C 1.896,-0.78 1.312,-0.273 0,0"/></g><g transform="translate(434.2817,215.416)" id="g204"><path id="path206" style="fill:#2d4462;fill-opacity:1;fill-rule:nonzero;stroke:none" d="m 0,0 c 0,-1.136 -0.787,-1.96 -1.872,-1.96 -1.27,0 -1.838,0.984 -1.838,1.96 0,0.981 0.568,1.972 1.838,1.972 C -0.787,1.972 0,1.143 0,0 m -0.089,2.035 c -0.458,0.512 -1.143,0.819 -1.86,0.819 -1.628,0 -2.809,-1.201 -2.809,-2.854 0,-1.653 1.181,-2.854 2.809,-2.854 0.713,0 1.399,0.302 1.86,0.804 v -0.671 h 1.005 v 8.636 h -1.005 z"/></g><g transform="translate(439.4795,213.4561)" id="g208"><path id="path210" style="fill:#2d4462;fill-opacity:1;fill-rule:nonzero;stroke:none" d="m 0,0 c -1.083,0 -1.839,0.806 -1.839,1.96 0,1.161 0.756,1.972 1.839,1.972 1.089,0 1.849,-0.811 1.849,-1.972 C 1.849,0.806 1.089,0 0,0 m 0,4.813 c -1.673,0 -2.887,-1.2 -2.887,-2.853 0,-1.653 1.214,-2.854 2.887,-2.854 1.679,0 2.898,1.201 2.898,2.854 0,1.653 -1.219,2.853 -2.898,2.853"/></g><g transform="translate(448.8037,214.1768)" id="g212"><path id="path214" style="fill:#2d4462;fill-opacity:1;fill-rule:nonzero;stroke:none" d="M 0,0 -1.334,3.96 H -2.246 L -3.559,10e-4 -4.736,3.96 h -1.073 l 1.72,-5.441 h 1.004 l 1.285,3.96 1.306,-3.96 H 0.509 L 2.229,3.96 H 1.167 Z"/></g><g transform="translate(454.6719,218.2695)" id="g216"><path id="path218" style="fill:#2d4462;fill-opacity:1;fill-rule:nonzero;stroke:none" d="m 0,0 c -0.65,0 -1.303,-0.312 -1.683,-0.774 -0.009,0.18 -0.022,0.373 -0.034,0.526 l -0.009,0.115 H -2.7 l 0.013,-0.137 c 0.03,-0.322 0.044,-0.811 0.044,-1.13 v -4.174 h 1.004 v 2.787 c 0,1.316 0.728,1.905 1.45,1.905 0.9,0 1.284,-0.507 1.284,-1.694 v -2.998 h 1.004 v 3.308 C 2.099,-0.847 1.314,0 0,0"/></g></g></g></g></svg>